<svg version="1.1" xmlns="http://www.w3.org/2000/svg" xmlns:xlink="http://www.w3.org/1999/xlink" width="659" height="587"><defs/><g><text fill="#eeeeee" stroke="none" font-family="Arial" font-size="24px" font-style="normal" font-weight="normal" text-decoration="none" x="0" y="0">UNREGISTERED</text><text fill="#eeeeee" stroke="none" font-family="Arial" font-size="24px" font-style="normal" font-weight="normal" text-decoration="none" x="0" y="30">UNREGISTERED</text><text fill="#eeeeee" stroke="none" font-family="Arial" font-size="24px" font-style="normal" font-weight="normal" text-decoration="none" x="0" y="60">UNREGISTERED</text><text fill="#eeeeee" stroke="none" font-family="Arial" font-size="24px" font-style="normal" font-weight="normal" text-decoration="none" x="0" y="90">UNREGISTERED</text><text fill="#eeeeee" stroke="none" font-family="Arial" font-size="24px" font-style="normal" font-weight="normal" text-decoration="none" x="0" y="120">UNREGISTERED</text><text fill="#eeeeee" stroke="none" font-family="Arial" font-size="24px" font-style="normal" font-weight="normal" text-decoration="none" x="0" y="150">UNREGISTERED</text><text fill="#eeeeee" stroke="none" font-family="Arial" font-size="24px" font-style="normal" font-weight="normal" text-decoration="none" x="0" y="180">UNREGISTERED</text><text fill="#eeeeee" stroke="none" font-family="Arial" font-size="24px" font-style="normal" font-weight="normal" text-decoration="none" x="0" y="210">UNREGISTERED</text><text fill="#eeeeee" stroke="none" font-family="Arial" font-size="24px" font-style="normal" font-weight="normal" text-decoration="none" x="0" y="240">UNREGISTERED</text><text fill="#eeeeee" stroke="none" font-family="Arial" font-size="24px" font-style="normal" font-weight="normal" text-decoration="none" x="0" y="270">UNREGISTERED</text><text fill="#eeeeee" stroke="none" font-family="Arial" font-size="24px" font-style="normal" font-weight="normal" text-decoration="none" x="0" y="300">UNREGISTERED</text><text fill="#eeeeee" stroke="none" font-family="Arial" font-size="24px" font-style="normal" font-weight="normal" text-decoration="none" x="0" y="330">UNREGISTERED</text><text fill="#eeeeee" stroke="none" font-family="Arial" font-size="24px" font-style="normal" font-weight="normal" text-decoration="none" x="0" y="360">UNREGISTERED</text><text fill="#eeeeee" stroke="none" font-family="Arial" font-size="24px" font-style="normal" font-weight="normal" text-decoration="none" x="0" y="390">UNREGISTERED</text><text fill="#eeeeee" stroke="none" font-family="Arial" font-size="24px" font-style="normal" font-weight="normal" text-decoration="none" x="0" y="420">UNREGISTERED</text><text fill="#eeeeee" stroke="none" font-family="Arial" font-size="24px" font-style="normal" font-weight="normal" text-decoration="none" x="0" y="450">UNREGISTERED</text><text fill="#eeeeee" stroke="none" font-family="Arial" font-size="24px" font-style="normal" font-weight="normal" text-decoration="none" x="0" y="480">UNREGISTERED</text><text fill="#eeeeee" stroke="none" font-family="Arial" font-size="24px" font-style="normal" font-weight="normal" text-decoration="none" x="0" y="510">UNREGISTERED</text><text fill="#eeeeee" stroke="none" font-family="Arial" font-size="24px" font-style="normal" font-weight="normal" text-decoration="none" x="0" y="540">UNREGISTERED</text><text fill="#eeeeee" stroke="none" font-family="Arial" font-size="24px" font-style="normal" font-weight="normal" text-decoration="none" x="0" y="570">UNREGISTERED</text><text fill="#eeeeee" stroke="none" font-family="Arial" font-size="24px" font-style="normal" font-weight="normal" text-decoration="none" x="200" y="0">UNREGISTERED</text><text fill="#eeeeee" stroke="none" font-family="Arial" font-size="24px" font-style="normal" font-weight="normal" text-decoration="none" x="200" y="30">UNREGISTERED</text><text fill="#eeeeee" stroke="none" font-family="Arial" font-size="24px" font-style="normal" font-weight="normal" text-decoration="none" x="200" y="60">UNREGISTERED</text><text fill="#eeeeee" stroke="none" font-family="Arial" font-size="24px" font-style="normal" font-weight="normal" text-decoration="none" x="200" y="90">UNREGISTERED</text><text fill="#eeeeee" stroke="none" font-family="Arial" font-size="24px" font-style="normal" font-weight="normal" text-decoration="none" x="200" y="120">UNREGISTERED</text><text fill="#eeeeee" stroke="none" font-family="Arial" font-size="24px" font-style="normal" font-weight="normal" text-decoration="none" x="200" y="150">UNREGISTERED</text><text fill="#eeeeee" stroke="none" font-family="Arial" font-size="24px" font-style="normal" font-weight="normal" text-decoration="none" x="200" y="180">UNREGISTERED</text><text fill="#eeeeee" stroke="none" font-family="Arial" font-size="24px" font-style="normal" font-weight="normal" text-decoration="none" x="200" y="210">UNREGISTERED</text><text fill="#eeeeee" stroke="none" font-family="Arial" font-size="24px" font-style="normal" font-weight="normal" text-decoration="none" x="200" y="240">UNREGISTERED</text><text fill="#eeeeee" stroke="none" font-family="Arial" font-size="24px" font-style="normal" font-weight="normal" text-decoration="none" x="200" y="270">UNREGISTERED</text><text fill="#eeeeee" stroke="none" font-family="Arial" font-size="24px" font-style="normal" font-weight="normal" text-decoration="none" x="200" y="300">UNREGISTERED</text><text fill="#eeeeee" stroke="none" font-family="Arial" font-size="24px" font-style="normal" font-weight="normal" text-decoration="none" x="200" y="330">UNREGISTERED</text><text fill="#eeeeee" stroke="none" font-family="Arial" font-size="24px" font-style="normal" font-weight="normal" text-decoration="none" x="200" y="360">UNREGISTERED</text><text fill="#eeeeee" stroke="none" font-family="Arial" font-size="24px" font-style="normal" font-weight="normal" text-decoration="none" x="200" y="390">UNREGISTERED</text><text fill="#eeeeee" stroke="none" font-family="Arial" font-size="24px" font-style="normal" font-weight="normal" text-decoration="none" x="200" y="420">UNREGISTERED</text><text fill="#eeeeee" stroke="none" font-family="Arial" font-size="24px" font-style="normal" font-weight="normal" text-decoration="none" x="200" y="450">UNREGISTERED</text><text fill="#eeeeee" stroke="none" font-family="Arial" font-size="24px" font-style="normal" font-weight="normal" text-decoration="none" x="200" y="480">UNREGISTERED</text><text fill="#eeeeee" stroke="none" font-family="Arial" font-size="24px" font-style="normal" font-weight="normal" text-decoration="none" x="200" y="510">UNREGISTERED</text><text fill="#eeeeee" stroke="none" font-family="Arial" font-size="24px" font-style="normal" font-weight="normal" text-decoration="none" x="200" y="540">UNREGISTERED</text><text fill="#eeeeee" stroke="none" font-family="Arial" font-size="24px" font-style="normal" font-weight="normal" text-decoration="none" x="200" y="570">UNREGISTERED</text><text fill="#eeeeee" stroke="none" font-family="Arial" font-size="24px" font-style="normal" font-weight="normal" text-decoration="none" x="400" y="0">UNREGISTERED</text><text fill="#eeeeee" stroke="none" font-family="Arial" font-size="24px" font-style="normal" font-weight="normal" text-decoration="none" x="400" y="30">UNREGISTERED</text><text fill="#eeeeee" stroke="none" font-family="Arial" font-size="24px" font-style="normal" font-weight="normal" text-decoration="none" x="400" y="60">UNREGISTERED</text><text fill="#eeeeee" stroke="none" font-family="Arial" font-size="24px" font-style="normal" font-weight="normal" text-decoration="none" x="400" y="90">UNREGISTERED</text><text fill="#eeeeee" stroke="none" font-family="Arial" font-size="24px" font-style="normal" font-weight="normal" text-decoration="none" x="400" y="120">UNREGISTERED</text><text fill="#eeeeee" stroke="none" font-family="Arial" font-size="24px" font-style="normal" font-weight="normal" text-decoration="none" x="400" y="150">UNREGISTERED</text><text fill="#eeeeee" stroke="none" font-family="Arial" font-size="24px" font-style="normal" font-weight="normal" text-decoration="none" x="400" y="180">UNREGISTERED</text><text fill="#eeeeee" stroke="none" font-family="Arial" font-size="24px" font-style="normal" font-weight="normal" text-decoration="none" x="400" y="210">UNREGISTERED</text><text fill="#eeeeee" stroke="none" font-family="Arial" font-size="24px" font-style="normal" font-weight="normal" text-decoration="none" x="400" y="240">UNREGISTERED</text><text fill="#eeeeee" stroke="none" font-family="Arial" font-size="24px" font-style="normal" font-weight="normal" text-decoration="none" x="400" y="270">UNREGISTERED</text><text fill="#eeeeee" stroke="none" font-family="Arial" font-size="24px" font-style="normal" font-weight="normal" text-decoration="none" x="400" y="300">UNREGISTERED</text><text fill="#eeeeee" stroke="none" font-family="Arial" font-size="24px" font-style="normal" font-weight="normal" text-decoration="none" x="400" y="330">UNREGISTERED</text><text fill="#eeeeee" stroke="none" font-family="Arial" font-size="24px" font-style="normal" font-weight="normal" text-decoration="none" x="400" y="360">UNREGISTERED</text><text fill="#eeeeee" stroke="none" font-family="Arial" font-size="24px" font-style="normal" font-weight="normal" text-decoration="none" x="400" y="390">UNREGISTERED</text><text fill="#eeeeee" stroke="none" font-family="Arial" font-size="24px" font-style="normal" font-weight="normal" text-decoration="none" x="400" y="420">UNREGISTERED</text><text fill="#eeeeee" stroke="none" font-family="Arial" font-size="24px" font-style="normal" font-weight="normal" text-decoration="none" x="400" y="450">UNREGISTERED</text><text fill="#eeeeee" stroke="none" font-family="Arial" font-size="24px" font-style="normal" font-weight="normal" text-decoration="none" x="400" y="480">UNREGISTERED</text><text fill="#eeeeee" stroke="none" font-family="Arial" font-size="24px" font-style="normal" font-weight="normal" text-decoration="none" x="400" y="510">UNREGISTERED</text><text fill="#eeeeee" stroke="none" font-family="Arial" font-size="24px" font-style="normal" font-weight="normal" text-decoration="none" x="400" y="540">UNREGISTERED</text><text fill="#eeeeee" stroke="none" font-family="Arial" font-size="24px" font-style="normal" font-weight="normal" text-decoration="none" x="400" y="570">UNREGISTERED</text><text fill="#eeeeee" stroke="none" font-family="Arial" font-size="24px" font-style="normal" font-weight="normal" text-decoration="none" x="600" y="0">UNREGISTERED</text><text fill="#eeeeee" stroke="none" font-family="Arial" font-size="24px" font-style="normal" font-weight="normal" text-decoration="none" x="600" y="30">UNREGISTERED</text><text fill="#eeeeee" stroke="none" font-family="Arial" font-size="24px" font-style="normal" font-weight="normal" text-decoration="none" x="600" y="60">UNREGISTERED</text><text fill="#eeeeee" stroke="none" font-family="Arial" font-size="24px" font-style="normal" font-weight="normal" text-decoration="none" x="600" y="90">UNREGISTERED</text><text fill="#eeeeee" stroke="none" font-family="Arial" font-size="24px" font-style="normal" font-weight="normal" text-decoration="none" x="600" y="120">UNREGISTERED</text><text fill="#eeeeee" stroke="none" font-family="Arial" font-size="24px" font-style="normal" font-weight="normal" text-decoration="none" x="600" y="150">UNREGISTERED</text><text fill="#eeeeee" stroke="none" font-family="Arial" font-size="24px" font-style="normal" font-weight="normal" text-decoration="none" x="600" y="180">UNREGISTERED</text><text fill="#eeeeee" stroke="none" font-family="Arial" font-size="24px" font-style="normal" font-weight="normal" text-decoration="none" x="600" y="210">UNREGISTERED</text><text fill="#eeeeee" stroke="none" font-family="Arial" font-size="24px" font-style="normal" font-weight="normal" text-decoration="none" x="600" y="240">UNREGISTERED</text><text fill="#eeeeee" stroke="none" font-family="Arial" font-size="24px" font-style="normal" font-weight="normal" text-decoration="none" x="600" y="270">UNREGISTERED</text><text fill="#eeeeee" stroke="none" font-family="Arial" font-size="24px" font-style="normal" font-weight="normal" text-decoration="none" x="600" y="300">UNREGISTERED</text><text fill="#eeeeee" stroke="none" font-family="Arial" font-size="24px" font-style="normal" font-weight="normal" text-decoration="none" x="600" y="330">UNREGISTERED</text><text fill="#eeeeee" stroke="none" font-family="Arial" font-size="24px" font-style="normal" font-weight="normal" text-decoration="none" x="600" y="360">UNREGISTERED</text><text fill="#eeeeee" stroke="none" font-family="Arial" font-size="24px" font-style="normal" font-weight="normal" text-decoration="none" x="600" y="390">UNREGISTERED</text><text fill="#eeeeee" stroke="none" font-family="Arial" font-size="24px" font-style="normal" font-weight="normal" text-decoration="none" x="600" y="420">UNREGISTERED</text><text fill="#eeeeee" stroke="none" font-family="Arial" font-size="24px" font-style="normal" font-weight="normal" text-decoration="none" x="600" y="450">UNREGISTERED</text><text fill="#eeeeee" stroke="none" font-family="Arial" font-size="24px" font-style="normal" font-weight="normal" text-decoration="none" x="600" y="480">UNREGISTERED</text><text fill="#eeeeee" stroke="none" font-family="Arial" font-size="24px" font-style="normal" font-weight="normal" text-decoration="none" x="600" y="510">UNREGISTERED</text><text fill="#eeeeee" stroke="none" font-family="Arial" font-size="24px" font-style="normal" font-weight="normal" text-decoration="none" x="600" y="540">UNREGISTERED</text><text fill="#eeeeee" stroke="none" font-family="Arial" font-size="24px" font-style="normal" font-weight="normal" text-decoration="none" x="600" y="570">UNREGISTERED</text><g transform="translate(10,-14) scale(1,1)"><rect fill="#C0C0C0" stroke="none" x="87" y="31" width="479" height="567" opacity="0.2"/></g><g transform="translate(10,-14) scale(1,1)"><rect fill="#ffffff" stroke="none" x="80" y="24" width="479" height="567"/></g><g transform="translate(10,-14) scale(1,1)"><path fill="none" stroke="#000000" d="M 80 24 L 559 24 L 559 591 L 80 591 L 80 24 Z Z" stroke-miterlimit="10"/></g><g transform="translate(10,-14) scale(1,1)"><g><path fill="none" stroke="none"/><text fill="#000000" stroke="none" font-family="Arial" font-size="13px" font-style="normal" font-weight="bold" text-decoration="none" x="253.151123046875" y="43.5">ATM use case diagram</text></g></g><g transform="translate(10,-14) scale(1,1)"><path fill="#ffffff" stroke="none" d="M 26.15935031960227 81.68 C 26.15935031960227 76.886167936 30.045192644547726 73 34.838623046875 73 C 39.632053449202274 73 43.51789577414773 76.886167936 43.51789577414773 81.68 C 43.51789577414773 86.473832064 39.632053449202274 90.36 34.838623046875 90.36 C 30.045192644547726 90.36 26.15935031960227 86.473832064 26.15935031960227 81.68 Z"/></g><g transform="translate(10,-14) scale(1,1)"><path fill="none" stroke="#000000" d="M 26.15935031960227 81.68 C 26.15935031960227 76.886167936 30.045192644547726 73 34.838623046875 73 C 39.632053449202274 73 43.51789577414773 76.886167936 43.51789577414773 81.68 C 43.51789577414773 86.473832064 39.632053449202274 90.36 34.838623046875 90.36 C 30.045192644547726 90.36 26.15935031960227 86.473832064 26.15935031960227 81.68 Z" stroke-miterlimit="10"/></g><g transform="translate(10,-14) scale(1,1)"><path fill="none" stroke="#000000" d="M 34.838623046875 90.36 L 34.838623046875 107.64" stroke-miterlimit="10"/></g><g transform="translate(10,-14) scale(1,1)"><path fill="none" stroke="#000000" d="M 25.648804865056817 96.84 L 44.02844122869318 96.84" stroke-miterlimit="10"/></g><g transform="translate(10,-14) scale(1,1)"><path fill="none" stroke="#000000" d="M 34.838623046875 107.64 L 22.074986683238635 125" stroke-miterlimit="10"/></g><g transform="translate(10,-14) scale(1,1)"><path fill="none" stroke="#000000" d="M 34.838623046875 107.64 L 47.602259410511365 125" stroke-miterlimit="10"/></g><g transform="translate(10,-14) scale(1,1)"><g><path fill="none" stroke="none"/><text fill="#000000" stroke="none" font-family="Arial" font-size="13px" font-style="normal" font-weight="bold" text-decoration="none" x="6.66455078125" y="145.5">Customer</text></g></g><g transform="translate(10,-14) scale(1,1)"><path fill="#ffffff" stroke="none" d="M 44.00610049715909 443.03999999999996 C 44.00610049715909 437.49506060799996 48.46762316654091 433 53.97119140625 433 C 59.47475964595909 433 63.93628231534091 437.49506060799996 63.93628231534091 443.03999999999996 C 63.93628231534091 448.58493939199997 59.47475964595909 453.08 53.97119140625 453.08 C 48.46762316654091 453.08 44.00610049715909 448.58493939199997 44.00610049715909 443.03999999999996 Z"/></g><g transform="translate(10,-14) scale(1,1)"><path fill="none" stroke="#000000" d="M 44.00610049715909 443.03999999999996 C 44.00610049715909 437.49506060799996 48.46762316654091 433 53.97119140625 433 C 59.47475964595909 433 63.93628231534091 437.49506060799996 63.93628231534091 443.03999999999996 C 63.93628231534091 448.58493939199997 59.47475964595909 453.08 53.97119140625 453.08 C 48.46762316654091 453.08 44.00610049715909 448.58493939199997 44.00610049715909 443.03999999999996 Z" stroke-miterlimit="10"/></g><g transform="translate(10,-14) scale(1,1)"><path fill="none" stroke="#000000" d="M 53.97119140625 453.08 L 53.97119140625 472.92" stroke-miterlimit="10"/></g><g transform="translate(10,-14) scale(1,1)"><path fill="none" stroke="#000000" d="M 43.41991867897727 460.52 L 64.52246413352273 460.52" stroke-miterlimit="10"/></g><g transform="translate(10,-14) scale(1,1)"><path fill="none" stroke="#000000" d="M 53.97119140625 472.92 L 39.316645951704544 493" stroke-miterlimit="10"/></g><g transform="translate(10,-14) scale(1,1)"><path fill="none" stroke="#000000" d="M 53.97119140625 472.92 L 68.62573686079546 493" stroke-miterlimit="10"/></g><g transform="translate(10,-14) scale(1,1)"><g><path fill="none" stroke="none"/><text fill="#000000" stroke="none" font-family="Arial" font-size="13px" font-style="normal" font-weight="bold" text-decoration="none" x="23.258056640625" y="513.5">Technician</text></g></g><g transform="translate(10,-14) scale(1,1)"><path fill="#C0C0C0" stroke="none" d="M 135 106.5 C 135 95.7304464 157.6096176 87 185.5 87 C 213.3903824 87 236 95.7304464 236 106.5 C 236 117.2695536 213.3903824 126 185.5 126 C 157.6096176 126 135 117.2695536 135 106.5 Z" opacity="0.2"/></g><g transform="translate(10,-14) scale(1,1)"><path fill="#ffffff" stroke="none" d="M 128 99.5 C 128 88.7304464 150.6096176 80 178.5 80 C 206.3903824 80 229 88.7304464 229 99.5 C 229 110.2695536 206.3903824 119 178.5 119 C 150.6096176 119 128 110.2695536 128 99.5 Z"/></g><g transform="translate(10,-14) scale(1,1)"><path fill="none" stroke="#000000" d="M 128 99.5 C 128 88.7304464 150.6096176 80 178.5 80 C 206.3903824 80 229 88.7304464 229 99.5 C 229 110.2695536 206.3903824 119 178.5 119 C 150.6096176 119 128 110.2695536 128 99.5 Z" stroke-miterlimit="10"/></g><g transform="translate(10,-14) scale(1,1)"><g><path fill="none" stroke="none"/><text fill="#000000" stroke="none" font-family="Arial" font-size="13px" font-style="normal" font-weight="bold" text-decoration="none" x="160.7900390625" y="106.5">Log in</text></g></g><g transform="translate(10,-14) scale(1,1)"><path fill="#C0C0C0" stroke="none" d="M 279 128 C 279 118.6111584 330.487248 111 394 111 C 457.512752 111 509 118.6111584 509 128 C 509 137.3888416 457.512752 145 394 145 C 330.487248 145 279 137.3888416 279 128 Z" opacity="0.2"/></g><g transform="translate(10,-14) scale(1,1)"><path fill="#ffffff" stroke="none" d="M 272 121 C 272 111.6111584 323.487248 104 387 104 C 450.512752 104 502 111.6111584 502 121 C 502 130.3888416 450.512752 138 387 138 C 323.487248 138 272 130.3888416 272 121 Z"/></g><g transform="translate(10,-14) scale(1,1)"><path fill="none" stroke="#000000" d="M 272 121 C 272 111.6111584 323.487248 104 387 104 C 450.512752 104 502 111.6111584 502 121 C 502 130.3888416 450.512752 138 387 138 C 323.487248 138 272 130.3888416 272 121 Z" stroke-miterlimit="10"/></g><g transform="translate(10,-14) scale(1,1)"><g><path fill="none" stroke="none"/><text fill="#000000" stroke="none" font-family="Arial" font-size="13px" font-style="normal" font-weight="bold" text-decoration="none" x="316.188720703125" y="128">Incorrect pin re-enter pin</text></g></g><g transform="translate(10,-14) scale(1,1)"><path fill="#C0C0C0" stroke="none" d="M 239 224 C 239 214.6111584 271.0116368 207 310.5 207 C 349.9883632 207 382 214.6111584 382 224 C 382 233.3888416 349.9883632 241 310.5 241 C 271.0116368 241 239 233.3888416 239 224 Z" opacity="0.2"/></g><g transform="translate(10,-14) scale(1,1)"><path fill="#ffffff" stroke="none" d="M 232 217 C 232 207.6111584 264.0116368 200 303.5 200 C 342.9883632 200 375 207.6111584 375 217 C 375 226.3888416 342.9883632 234 303.5 234 C 264.0116368 234 232 226.3888416 232 217 Z"/></g><g transform="translate(10,-14) scale(1,1)"><path fill="none" stroke="#000000" d="M 232 217 C 232 207.6111584 264.0116368 200 303.5 200 C 342.9883632 200 375 207.6111584 375 217 C 375 226.3888416 342.9883632 234 303.5 234 C 264.0116368 234 232 226.3888416 232 217 Z" stroke-miterlimit="10"/></g><g transform="translate(10,-14) scale(1,1)"><g><path fill="none" stroke="none"/><text fill="#000000" stroke="none" font-family="Arial" font-size="13px" font-style="normal" font-weight="bold" text-decoration="none" x="271.70458984375" y="224">transaction</text></g></g><g transform="translate(10,-14) scale(1,1)"><path fill="#C0C0C0" stroke="none" d="M 119 304 C 119 294.6111584 142.05733279999998 287 170.5 287 C 198.94266720000002 287 222 294.6111584 222 304 C 222 313.3888416 198.94266720000002 321 170.5 321 C 142.05733279999998 321 119 313.3888416 119 304 Z" opacity="0.2"/></g><g transform="translate(10,-14) scale(1,1)"><path fill="#ffffff" stroke="none" d="M 112 297 C 112 287.6111584 135.05733279999998 280 163.5 280 C 191.94266720000002 280 215 287.6111584 215 297 C 215 306.3888416 191.94266720000002 314 163.5 314 C 135.05733279999998 314 112 306.3888416 112 297 Z"/></g><g transform="translate(10,-14) scale(1,1)"><path fill="none" stroke="#000000" d="M 112 297 C 112 287.6111584 135.05733279999998 280 163.5 280 C 191.94266720000002 280 215 287.6111584 215 297 C 215 306.3888416 191.94266720000002 314 163.5 314 C 135.05733279999998 314 112 306.3888416 112 297 Z" stroke-miterlimit="10"/></g><g transform="translate(10,-14) scale(1,1)"><g><path fill="none" stroke="none"/><text fill="#000000" stroke="none" font-family="Arial" font-size="13px" font-style="normal" font-weight="bold" text-decoration="none" x="137.852294921875" y="304">withdraw</text></g></g><g transform="translate(10,-14) scale(1,1)"><path fill="#C0C0C0" stroke="none" d="M 199 352 C 199 342.6111584 221.6096176 335 249.5 335 C 277.3903824 335 300 342.6111584 300 352 C 300 361.3888416 277.3903824 369 249.5 369 C 221.6096176 369 199 361.3888416 199 352 Z" opacity="0.2"/></g><g transform="translate(10,-14) scale(1,1)"><path fill="#ffffff" stroke="none" d="M 192 345 C 192 335.6111584 214.6096176 328 242.5 328 C 270.3903824 328 293 335.6111584 293 345 C 293 354.3888416 270.3903824 362 242.5 362 C 214.6096176 362 192 354.3888416 192 345 Z"/></g><g transform="translate(10,-14) scale(1,1)"><path fill="none" stroke="#000000" d="M 192 345 C 192 335.6111584 214.6096176 328 242.5 328 C 270.3903824 328 293 335.6111584 293 345 C 293 354.3888416 270.3903824 362 242.5 362 C 214.6096176 362 192 354.3888416 192 345 Z" stroke-miterlimit="10"/></g><g transform="translate(10,-14) scale(1,1)"><g><path fill="none" stroke="none"/><text fill="#000000" stroke="none" font-family="Arial" font-size="13px" font-style="normal" font-weight="bold" text-decoration="none" x="219.73095703125" y="352">balance</text></g></g><g transform="translate(10,-14) scale(1,1)"><path fill="#C0C0C0" stroke="none" d="M 319 352 C 319 342.6111584 342.0573328 335 370.5 335 C 398.9426672 335 422 342.6111584 422 352 C 422 361.3888416 398.9426672 369 370.5 369 C 342.0573328 369 319 361.3888416 319 352 Z" opacity="0.2"/></g><g transform="translate(10,-14) scale(1,1)"><path fill="#ffffff" stroke="none" d="M 312 345 C 312 335.6111584 335.0573328 328 363.5 328 C 391.9426672 328 415 335.6111584 415 345 C 415 354.3888416 391.9426672 362 363.5 362 C 335.0573328 362 312 354.3888416 312 345 Z"/></g><g transform="translate(10,-14) scale(1,1)"><path fill="none" stroke="#000000" d="M 312 345 C 312 335.6111584 335.0573328 328 363.5 328 C 391.9426672 328 415 335.6111584 415 345 C 415 354.3888416 391.9426672 362 363.5 362 C 335.0573328 362 312 354.3888416 312 345 Z" stroke-miterlimit="10"/></g><g transform="translate(10,-14) scale(1,1)"><g><path fill="none" stroke="none"/><text fill="#000000" stroke="none" font-family="Arial" font-size="13px" font-style="normal" font-weight="bold" text-decoration="none" x="342.5400390625" y="352">deposit</text></g></g><g transform="translate(10,-14) scale(1,1)"><path fill="#C0C0C0" stroke="none" d="M 375 304 C 375 294.6111584 397.6096176 287 425.5 287 C 453.3903824 287 476 294.6111584 476 304 C 476 313.3888416 453.3903824 321 425.5 321 C 397.6096176 321 375 313.3888416 375 304 Z" opacity="0.2"/></g><g transform="translate(10,-14) scale(1,1)"><path fill="#ffffff" stroke="none" d="M 368 297 C 368 287.6111584 390.6096176 280 418.5 280 C 446.3903824 280 469 287.6111584 469 297 C 469 306.3888416 446.3903824 314 418.5 314 C 390.6096176 314 368 306.3888416 368 297 Z"/></g><g transform="translate(10,-14) scale(1,1)"><path fill="none" stroke="#000000" d="M 368 297 C 368 287.6111584 390.6096176 280 418.5 280 C 446.3903824 280 469 287.6111584 469 297 C 469 306.3888416 446.3903824 314 418.5 314 C 390.6096176 314 368 306.3888416 368 297 Z" stroke-miterlimit="10"/></g><g transform="translate(10,-14) scale(1,1)"><g><path fill="none" stroke="none"/><text fill="#000000" stroke="none" font-family="Arial" font-size="13px" font-style="normal" font-weight="bold" text-decoration="none" x="398.990478515625" y="304">receipt</text></g></g><g transform="translate(10,-14) scale(1,1)"><path fill="#C0C0C0" stroke="none" d="M 143 506.5 C 143 495.7304464 171.42991519999998 487 206.5 487 C 241.57008480000002 487 270 495.7304464 270 506.5 C 270 517.2695536 241.57008480000002 526 206.5 526 C 171.42991519999998 526 143 517.2695536 143 506.5 Z" opacity="0.2"/></g><g transform="translate(10,-14) scale(1,1)"><path fill="#ffffff" stroke="none" d="M 136 499.5 C 136 488.7304464 164.42991519999998 480 199.5 480 C 234.57008480000002 480 263 488.7304464 263 499.5 C 263 510.2695536 234.57008480000002 519 199.5 519 C 164.42991519999998 519 136 510.2695536 136 499.5 Z"/></g><g transform="translate(10,-14) scale(1,1)"><path fill="none" stroke="#000000" d="M 136 499.5 C 136 488.7304464 164.42991519999998 480 199.5 480 C 234.57008480000002 480 263 488.7304464 263 499.5 C 263 510.2695536 234.57008480000002 519 199.5 519 C 164.42991519999998 519 136 510.2695536 136 499.5 Z" stroke-miterlimit="10"/></g><g transform="translate(10,-14) scale(1,1)"><g><path fill="none" stroke="none"/><text fill="#000000" stroke="none" font-family="Arial" font-size="13px" font-style="normal" font-weight="bold" text-decoration="none" x="162.280517578125" y="506.5">maintenance</text></g></g><g transform="translate(10,-14) scale(1,1)"><path fill="#C0C0C0" stroke="none" d="M 311 464 C 311 454.6111584 343.0116368 447 382.5 447 C 421.9883632 447 454 454.6111584 454 464 C 454 473.3888416 421.9883632 481 382.5 481 C 343.0116368 481 311 473.3888416 311 464 Z" opacity="0.2"/></g><g transform="translate(10,-14) scale(1,1)"><path fill="#ffffff" stroke="none" d="M 304 457 C 304 447.6111584 336.0116368 440 375.5 440 C 414.9883632 440 447 447.6111584 447 457 C 447 466.3888416 414.9883632 474 375.5 474 C 336.0116368 474 304 466.3888416 304 457 Z"/></g><g transform="translate(10,-14) scale(1,1)"><path fill="none" stroke="#000000" d="M 304 457 C 304 447.6111584 336.0116368 440 375.5 440 C 414.9883632 440 447 447.6111584 447 457 C 447 466.3888416 414.9883632 474 375.5 474 C 336.0116368 474 304 466.3888416 304 457 Z" stroke-miterlimit="10"/></g><g transform="translate(10,-14) scale(1,1)"><g><path fill="none" stroke="none"/><text fill="#000000" stroke="none" font-family="Arial" font-size="13px" font-style="normal" font-weight="bold" text-decoration="none" x="349.845947265625" y="464">reporting</text></g></g><g transform="translate(10,-14) scale(1,1)"><path fill="#C0C0C0" stroke="none" d="M 319 536 C 319 526.6111584 343.8481936 519 374.5 519 C 405.1518064 519 430 526.6111584 430 536 C 430 545.3888416 405.1518064 553 374.5 553 C 343.8481936 553 319 545.3888416 319 536 Z" opacity="0.2"/></g><g transform="translate(10,-14) scale(1,1)"><path fill="#ffffff" stroke="none" d="M 312 529 C 312 519.6111584 336.8481936 512 367.5 512 C 398.1518064 512 423 519.6111584 423 529 C 423 538.3888416 398.1518064 546 367.5 546 C 336.8481936 546 312 538.3888416 312 529 Z"/></g><g transform="translate(10,-14) scale(1,1)"><path fill="none" stroke="#000000" d="M 312 529 C 312 519.6111584 336.8481936 512 367.5 512 C 398.1518064 512 423 519.6111584 423 529 C 423 538.3888416 398.1518064 546 367.5 546 C 336.8481936 546 312 538.3888416 312 529 Z" stroke-miterlimit="10"/></g><g transform="translate(10,-14) scale(1,1)"><g><path fill="none" stroke="none"/><text fill="#000000" stroke="none" font-family="Arial" font-size="13px" font-style="normal" font-weight="bold" text-decoration="none" x="339.675048828125" y="536">shutdown</text></g></g><g transform="translate(10,-14) scale(1,1)"><path fill="none" stroke="#000000" d="M 272 235 L 195 279" stroke-miterlimit="10"/></g><g transform="translate(10,-14) scale(1,1)"><path fill="none" stroke="#000000" d="M 201.73516708030883 270.30301636196066 L 195 279 L 205.91217842123686 277.6127862085847" stroke-miterlimit="10"/></g><g transform="translate(10,-14) scale(1,1)"><path fill="#ffffff" stroke="none" d="M 594.8207272727273 137.68 C 594.8207272727273 132.886167936 598.7065695976727 129 603.5 129 C 608.2934304023273 129 612.1792727272727 132.886167936 612.1792727272727 137.68 C 612.1792727272727 142.47383206400002 608.2934304023273 146.36 603.5 146.36 C 598.7065695976727 146.36 594.8207272727273 142.47383206400002 594.8207272727273 137.68 Z"/></g><g transform="translate(10,-14) scale(1,1)"><path fill="none" stroke="#000000" d="M 594.8207272727273 137.68 C 594.8207272727273 132.886167936 598.7065695976727 129 603.5 129 C 608.2934304023273 129 612.1792727272727 132.886167936 612.1792727272727 137.68 C 612.1792727272727 142.47383206400002 608.2934304023273 146.36 603.5 146.36 C 598.7065695976727 146.36 594.8207272727273 142.47383206400002 594.8207272727273 137.68 Z" stroke-miterlimit="10"/></g><g transform="translate(10,-14) scale(1,1)"><path fill="none" stroke="#000000" d="M 603.5 146.36 L 603.5 163.64" stroke-miterlimit="10"/></g><g transform="translate(10,-14) scale(1,1)"><path fill="none" stroke="#000000" d="M 594.3101818181818 152.84 L 612.6898181818182 152.84" stroke-miterlimit="10"/></g><g transform="translate(10,-14) scale(1,1)"><path fill="none" stroke="#000000" d="M 603.5 163.64 L 590.7363636363636 181" stroke-miterlimit="10"/></g><g transform="translate(10,-14) scale(1,1)"><path fill="none" stroke="#000000" d="M 603.5 163.64 L 616.2636363636364 181" stroke-miterlimit="10"/></g><g transform="translate(10,-14) scale(1,1)"><g><path fill="none" stroke="none"/><text fill="#000000" stroke="none" font-family="Arial" font-size="13px" font-style="normal" font-weight="bold" text-decoration="none" x="588.6845703125" y="201.5">Bank</text></g></g><g transform="translate(10,-14) scale(1,1)"><path fill="none" stroke="#000000" d="M 376 205 L 567 173" stroke-miterlimit="10"/></g><g transform="translate(10,-14) scale(1,1)"><path fill="none" stroke="#000000" d="M 93 482 L 135 488" stroke-miterlimit="10"/></g><g transform="translate(10,-14) scale(1,1)"><path fill="none" stroke="#000000" d="M 124.34414946029108 490.7299907097617 L 135 488 L 125.53478088061271 482.39557076751026" stroke-miterlimit="10"/></g><g transform="translate(10,-14) scale(1,1)"><path fill="none" stroke="#000000" d="M 200 120 L 284 199" stroke-miterlimit="10" stroke-dasharray="3"/></g><g transform="translate(10,-14) scale(1,1)"><path fill="none" stroke="#000000" d="M 273.713037432142 195.1040532437559 L 284 199 L 279.48086938093735 188.9711686399735" stroke-miterlimit="10"/></g><g transform="translate(10,-14) scale(1,1)"><g><path fill="none" stroke="none"/><text fill="#000000" stroke="none" font-family="Arial" font-size="13px" font-style="normal" font-weight="normal" text-decoration="none" x="234.5" y="143.5">«include»</text></g></g><g transform="translate(10,-14) scale(1,1)"><path fill="none" stroke="#000000" d="M 371 139 L 319 199" stroke-miterlimit="10" stroke-dasharray="3"/></g><g transform="translate(10,-14) scale(1,1)"><path fill="none" stroke="#000000" d="M 322.4747595042381 188.56323582772384 L 319 199 L 328.83693272830044 194.07711928857788" stroke-miterlimit="10"/></g><g transform="translate(10,-14) scale(1,1)"><g><path fill="none" stroke="none"/><text fill="#000000" stroke="none" font-family="Arial" font-size="13px" font-style="normal" font-weight="normal" text-decoration="none" x="340.5" y="194.5">«extend»</text></g></g><g transform="translate(10,-14) scale(1,1)"><path fill="none" stroke="#000000" d="M 264 483 L 303 474" stroke-miterlimit="10" stroke-dasharray="3"/></g><g transform="translate(10,-14) scale(1,1)"><path fill="none" stroke="#000000" d="M 294.04412918008137 480.38689109480737 L 303 474 L 292.15102900796654 472.1834570156431" stroke-miterlimit="10"/></g><g transform="translate(10,-14) scale(1,1)"><path fill="none" stroke="#000000" d="M 264 511 L 311 519" stroke-miterlimit="10" stroke-dasharray="3"/></g><g transform="translate(10,-14) scale(1,1)"><path fill="none" stroke="#000000" d="M 300.2750656486637 521.444541502926 L 311 519 L 301.6877743187787 513.1448780660005" stroke-miterlimit="10"/></g><g transform="translate(10,-14) scale(1,1)"><path fill="none" stroke="#000000" d="M 392 279 L 329 235" stroke-miterlimit="10"/></g><g transform="translate(10,-14) scale(1,1)"><path fill="none" stroke="#000000" d="M 311 235 L 355 327" stroke-miterlimit="10"/></g><g transform="translate(10,-14) scale(1,1)"><path fill="none" stroke="#000000" d="M 294 235 L 251 327" stroke-miterlimit="10"/></g></g></svg>