<svg version="1.1" xmlns="http://www.w3.org/2000/svg" xmlns:xlink="http://www.w3.org/1999/xlink" width="706.64990234375" height="635"><defs/><g><text fill="#eeeeee" stroke="none" font-family="Arial" font-size="24px" font-style="normal" font-weight="normal" text-decoration="none" x="0" y="0">UNREGISTERED</text><text fill="#eeeeee" stroke="none" font-family="Arial" font-size="24px" font-style="normal" font-weight="normal" text-decoration="none" x="0" y="30">UNREGISTERED</text><text fill="#eeeeee" stroke="none" font-family="Arial" font-size="24px" font-style="normal" font-weight="normal" text-decoration="none" x="0" y="60">UNREGISTERED</text><text fill="#eeeeee" stroke="none" font-family="Arial" font-size="24px" font-style="normal" font-weight="normal" text-decoration="none" x="0" y="90">UNREGISTERED</text><text fill="#eeeeee" stroke="none" font-family="Arial" font-size="24px" font-style="normal" font-weight="normal" text-decoration="none" x="0" y="120">UNREGISTERED</text><text fill="#eeeeee" stroke="none" font-family="Arial" font-size="24px" font-style="normal" font-weight="normal" text-decoration="none" x="0" y="150">UNREGISTERED</text><text fill="#eeeeee" stroke="none" font-family="Arial" font-size="24px" font-style="normal" font-weight="normal" text-decoration="none" x="0" y="180">UNREGISTERED</text><text fill="#eeeeee" stroke="none" font-family="Arial" font-size="24px" font-style="normal" font-weight="normal" text-decoration="none" x="0" y="210">UNREGISTERED</text><text fill="#eeeeee" stroke="none" font-family="Arial" font-size="24px" font-style="normal" font-weight="normal" text-decoration="none" x="0" y="240">UNREGISTERED</text><text fill="#eeeeee" stroke="none" font-family="Arial" font-size="24px" font-style="normal" font-weight="normal" text-decoration="none" x="0" y="270">UNREGISTERED</text><text fill="#eeeeee" stroke="none" font-family="Arial" font-size="24px" font-style="normal" font-weight="normal" text-decoration="none" x="0" y="300">UNREGISTERED</text><text fill="#eeeeee" stroke="none" font-family="Arial" font-size="24px" font-style="normal" font-weight="normal" text-decoration="none" x="0" y="330">UNREGISTERED</text><text fill="#eeeeee" stroke="none" font-family="Arial" font-size="24px" font-style="normal" font-weight="normal" text-decoration="none" x="0" y="360">UNREGISTERED</text><text fill="#eeeeee" stroke="none" font-family="Arial" font-size="24px" font-style="normal" font-weight="normal" text-decoration="none" x="0" y="390">UNREGISTERED</text><text fill="#eeeeee" stroke="none" font-family="Arial" font-size="24px" font-style="normal" font-weight="normal" text-decoration="none" x="0" y="420">UNREGISTERED</text><text fill="#eeeeee" stroke="none" font-family="Arial" font-size="24px" font-style="normal" font-weight="normal" text-decoration="none" x="0" y="450">UNREGISTERED</text><text fill="#eeeeee" stroke="none" font-family="Arial" font-size="24px" font-style="normal" font-weight="normal" text-decoration="none" x="0" y="480">UNREGISTERED</text><text fill="#eeeeee" stroke="none" font-family="Arial" font-size="24px" font-style="normal" font-weight="normal" text-decoration="none" x="0" y="510">UNREGISTERED</text><text fill="#eeeeee" stroke="none" font-family="Arial" font-size="24px" font-style="normal" font-weight="normal" text-decoration="none" x="0" y="540">UNREGISTERED</text><text fill="#eeeeee" stroke="none" font-family="Arial" font-size="24px" font-style="normal" font-weight="normal" text-decoration="none" x="0" y="570">UNREGISTERED</text><text fill="#eeeeee" stroke="none" font-family="Arial" font-size="24px" font-style="normal" font-weight="normal" text-decoration="none" x="0" y="600">UNREGISTERED</text><text fill="#eeeeee" stroke="none" font-family="Arial" font-size="24px" font-style="normal" font-weight="normal" text-decoration="none" x="0" y="630">UNREGISTERED</text><text fill="#eeeeee" stroke="none" font-family="Arial" font-size="24px" font-style="normal" font-weight="normal" text-decoration="none" x="200" y="0">UNREGISTERED</text><text fill="#eeeeee" stroke="none" font-family="Arial" font-size="24px" font-style="normal" font-weight="normal" text-decoration="none" x="200" y="30">UNREGISTERED</text><text fill="#eeeeee" stroke="none" font-family="Arial" font-size="24px" font-style="normal" font-weight="normal" text-decoration="none" x="200" y="60">UNREGISTERED</text><text fill="#eeeeee" stroke="none" font-family="Arial" font-size="24px" font-style="normal" font-weight="normal" text-decoration="none" x="200" y="90">UNREGISTERED</text><text fill="#eeeeee" stroke="none" font-family="Arial" font-size="24px" font-style="normal" font-weight="normal" text-decoration="none" x="200" y="120">UNREGISTERED</text><text fill="#eeeeee" stroke="none" font-family="Arial" font-size="24px" font-style="normal" font-weight="normal" text-decoration="none" x="200" y="150">UNREGISTERED</text><text fill="#eeeeee" stroke="none" font-family="Arial" font-size="24px" font-style="normal" font-weight="normal" text-decoration="none" x="200" y="180">UNREGISTERED</text><text fill="#eeeeee" stroke="none" font-family="Arial" font-size="24px" font-style="normal" font-weight="normal" text-decoration="none" x="200" y="210">UNREGISTERED</text><text fill="#eeeeee" stroke="none" font-family="Arial" font-size="24px" font-style="normal" font-weight="normal" text-decoration="none" x="200" y="240">UNREGISTERED</text><text fill="#eeeeee" stroke="none" font-family="Arial" font-size="24px" font-style="normal" font-weight="normal" text-decoration="none" x="200" y="270">UNREGISTERED</text><text fill="#eeeeee" stroke="none" font-family="Arial" font-size="24px" font-style="normal" font-weight="normal" text-decoration="none" x="200" y="300">UNREGISTERED</text><text fill="#eeeeee" stroke="none" font-family="Arial" font-size="24px" font-style="normal" font-weight="normal" text-decoration="none" x="200" y="330">UNREGISTERED</text><text fill="#eeeeee" stroke="none" font-family="Arial" font-size="24px" font-style="normal" font-weight="normal" text-decoration="none" x="200" y="360">UNREGISTERED</text><text fill="#eeeeee" stroke="none" font-family="Arial" font-size="24px" font-style="normal" font-weight="normal" text-decoration="none" x="200" y="390">UNREGISTERED</text><text fill="#eeeeee" stroke="none" font-family="Arial" font-size="24px" font-style="normal" font-weight="normal" text-decoration="none" x="200" y="420">UNREGISTERED</text><text fill="#eeeeee" stroke="none" font-family="Arial" font-size="24px" font-style="normal" font-weight="normal" text-decoration="none" x="200" y="450">UNREGISTERED</text><text fill="#eeeeee" stroke="none" font-family="Arial" font-size="24px" font-style="normal" font-weight="normal" text-decoration="none" x="200" y="480">UNREGISTERED</text><text fill="#eeeeee" stroke="none" font-family="Arial" font-size="24px" font-style="normal" font-weight="normal" text-decoration="none" x="200" y="510">UNREGISTERED</text><text fill="#eeeeee" stroke="none" font-family="Arial" font-size="24px" font-style="normal" font-weight="normal" text-decoration="none" x="200" y="540">UNREGISTERED</text><text fill="#eeeeee" stroke="none" font-family="Arial" font-size="24px" font-style="normal" font-weight="normal" text-decoration="none" x="200" y="570">UNREGISTERED</text><text fill="#eeeeee" stroke="none" font-family="Arial" font-size="24px" font-style="normal" font-weight="normal" text-decoration="none" x="200" y="600">UNREGISTERED</text><text fill="#eeeeee" stroke="none" font-family="Arial" font-size="24px" font-style="normal" font-weight="normal" text-decoration="none" x="200" y="630">UNREGISTERED</text><text fill="#eeeeee" stroke="none" font-family="Arial" font-size="24px" font-style="normal" font-weight="normal" text-decoration="none" x="400" y="0">UNREGISTERED</text><text fill="#eeeeee" stroke="none" font-family="Arial" font-size="24px" font-style="normal" font-weight="normal" text-decoration="none" x="400" y="30">UNREGISTERED</text><text fill="#eeeeee" stroke="none" font-family="Arial" font-size="24px" font-style="normal" font-weight="normal" text-decoration="none" x="400" y="60">UNREGISTERED</text><text fill="#eeeeee" stroke="none" font-family="Arial" font-size="24px" font-style="normal" font-weight="normal" text-decoration="none" x="400" y="90">UNREGISTERED</text><text fill="#eeeeee" stroke="none" font-family="Arial" font-size="24px" font-style="normal" font-weight="normal" text-decoration="none" x="400" y="120">UNREGISTERED</text><text fill="#eeeeee" stroke="none" font-family="Arial" font-size="24px" font-style="normal" font-weight="normal" text-decoration="none" x="400" y="150">UNREGISTERED</text><text fill="#eeeeee" stroke="none" font-family="Arial" font-size="24px" font-style="normal" font-weight="normal" text-decoration="none" x="400" y="180">UNREGISTERED</text><text fill="#eeeeee" stroke="none" font-family="Arial" font-size="24px" font-style="normal" font-weight="normal" text-decoration="none" x="400" y="210">UNREGISTERED</text><text fill="#eeeeee" stroke="none" font-family="Arial" font-size="24px" font-style="normal" font-weight="normal" text-decoration="none" x="400" y="240">UNREGISTERED</text><text fill="#eeeeee" stroke="none" font-family="Arial" font-size="24px" font-style="normal" font-weight="normal" text-decoration="none" x="400" y="270">UNREGISTERED</text><text fill="#eeeeee" stroke="none" font-family="Arial" font-size="24px" font-style="normal" font-weight="normal" text-decoration="none" x="400" y="300">UNREGISTERED</text><text fill="#eeeeee" stroke="none" font-family="Arial" font-size="24px" font-style="normal" font-weight="normal" text-decoration="none" x="400" y="330">UNREGISTERED</text><text fill="#eeeeee" stroke="none" font-family="Arial" font-size="24px" font-style="normal" font-weight="normal" text-decoration="none" x="400" y="360">UNREGISTERED</text><text fill="#eeeeee" stroke="none" font-family="Arial" font-size="24px" font-style="normal" font-weight="normal" text-decoration="none" x="400" y="390">UNREGISTERED</text><text fill="#eeeeee" stroke="none" font-family="Arial" font-size="24px" font-style="normal" font-weight="normal" text-decoration="none" x="400" y="420">UNREGISTERED</text><text fill="#eeeeee" stroke="none" font-family="Arial" font-size="24px" font-style="normal" font-weight="normal" text-decoration="none" x="400" y="450">UNREGISTERED</text><text fill="#eeeeee" stroke="none" font-family="Arial" font-size="24px" font-style="normal" font-weight="normal" text-decoration="none" x="400" y="480">UNREGISTERED</text><text fill="#eeeeee" stroke="none" font-family="Arial" font-size="24px" font-style="normal" font-weight="normal" text-decoration="none" x="400" y="510">UNREGISTERED</text><text fill="#eeeeee" stroke="none" font-family="Arial" font-size="24px" font-style="normal" font-weight="normal" text-decoration="none" x="400" y="540">UNREGISTERED</text><text fill="#eeeeee" stroke="none" font-family="Arial" font-size="24px" font-style="normal" font-weight="normal" text-decoration="none" x="400" y="570">UNREGISTERED</text><text fill="#eeeeee" stroke="none" font-family="Arial" font-size="24px" font-style="normal" font-weight="normal" text-decoration="none" x="400" y="600">UNREGISTERED</text><text fill="#eeeeee" stroke="none" font-family="Arial" font-size="24px" font-style="normal" font-weight="normal" text-decoration="none" x="400" y="630">UNREGISTERED</text><text fill="#eeeeee" stroke="none" font-family="Arial" font-size="24px" font-style="normal" font-weight="normal" text-decoration="none" x="600" y="0">UNREGISTERED</text><text fill="#eeeeee" stroke="none" font-family="Arial" font-size="24px" font-style="normal" font-weight="normal" text-decoration="none" x="600" y="30">UNREGISTERED</text><text fill="#eeeeee" stroke="none" font-family="Arial" font-size="24px" font-style="normal" font-weight="normal" text-decoration="none" x="600" y="60">UNREGISTERED</text><text fill="#eeeeee" stroke="none" font-family="Arial" font-size="24px" font-style="normal" font-weight="normal" text-decoration="none" x="600" y="90">UNREGISTERED</text><text fill="#eeeeee" stroke="none" font-family="Arial" font-size="24px" font-style="normal" font-weight="normal" text-decoration="none" x="600" y="120">UNREGISTERED</text><text fill="#eeeeee" stroke="none" font-family="Arial" font-size="24px" font-style="normal" font-weight="normal" text-decoration="none" x="600" y="150">UNREGISTERED</text><text fill="#eeeeee" stroke="none" font-family="Arial" font-size="24px" font-style="normal" font-weight="normal" text-decoration="none" x="600" y="180">UNREGISTERED</text><text fill="#eeeeee" stroke="none" font-family="Arial" font-size="24px" font-style="normal" font-weight="normal" text-decoration="none" x="600" y="210">UNREGISTERED</text><text fill="#eeeeee" stroke="none" font-family="Arial" font-size="24px" font-style="normal" font-weight="normal" text-decoration="none" x="600" y="240">UNREGISTERED</text><text fill="#eeeeee" stroke="none" font-family="Arial" font-size="24px" font-style="normal" font-weight="normal" text-decoration="none" x="600" y="270">UNREGISTERED</text><text fill="#eeeeee" stroke="none" font-family="Arial" font-size="24px" font-style="normal" font-weight="normal" text-decoration="none" x="600" y="300">UNREGISTERED</text><text fill="#eeeeee" stroke="none" font-family="Arial" font-size="24px" font-style="normal" font-weight="normal" text-decoration="none" x="600" y="330">UNREGISTERED</text><text fill="#eeeeee" stroke="none" font-family="Arial" font-size="24px" font-style="normal" font-weight="normal" text-decoration="none" x="600" y="360">UNREGISTERED</text><text fill="#eeeeee" stroke="none" font-family="Arial" font-size="24px" font-style="normal" font-weight="normal" text-decoration="none" x="600" y="390">UNREGISTERED</text><text fill="#eeeeee" stroke="none" font-family="Arial" font-size="24px" font-style="normal" font-weight="normal" text-decoration="none" x="600" y="420">UNREGISTERED</text><text fill="#eeeeee" stroke="none" font-family="Arial" font-size="24px" font-style="normal" font-weight="normal" text-decoration="none" x="600" y="450">UNREGISTERED</text><text fill="#eeeeee" stroke="none" font-family="Arial" font-size="24px" font-style="normal" font-weight="normal" text-decoration="none" x="600" y="480">UNREGISTERED</text><text fill="#eeeeee" stroke="none" font-family="Arial" font-size="24px" font-style="normal" font-weight="normal" text-decoration="none" x="600" y="510">UNREGISTERED</text><text fill="#eeeeee" stroke="none" font-family="Arial" font-size="24px" font-style="normal" font-weight="normal" text-decoration="none" x="600" y="540">UNREGISTERED</text><text fill="#eeeeee" stroke="none" font-family="Arial" font-size="24px" font-style="normal" font-weight="normal" text-decoration="none" x="600" y="570">UNREGISTERED</text><text fill="#eeeeee" stroke="none" font-family="Arial" font-size="24px" font-style="normal" font-weight="normal" text-decoration="none" x="600" y="600">UNREGISTERED</text><text fill="#eeeeee" stroke="none" font-family="Arial" font-size="24px" font-style="normal" font-weight="normal" text-decoration="none" x="600" y="630">UNREGISTERED</text><g transform="translate(2,-14) scale(1,1)"><rect fill="#C0C0C0" stroke="none" x="87" y="31" width="480" height="615" opacity="0.2"/></g><g transform="translate(2,-14) scale(1,1)"><rect fill="#ffffff" stroke="none" x="80" y="24" width="480" height="615"/></g><g transform="translate(2,-14) scale(1,1)"><path fill="none" stroke="#000000" d="M 80 24 L 560 24 L 560 639 L 80 639 L 80 24 Z Z" stroke-miterlimit="10"/></g><g transform="translate(2,-14) scale(1,1)"><g><path fill="none" stroke="none"/><text fill="#000000" stroke="none" font-family="Arial" font-size="13px" font-style="normal" font-weight="bold" text-decoration="none" x="264.8515625" y="43.5">Post Office System</text></g></g><g transform="translate(2,-14) scale(1,1)"><path fill="#ffffff" stroke="none" d="M 34.15935031960227 65.68 C 34.15935031960227 60.88616793600001 38.045192644547726 57 42.838623046875 57 C 47.632053449202274 57 51.51789577414773 60.88616793600001 51.51789577414773 65.68 C 51.51789577414773 70.473832064 47.632053449202274 74.36 42.838623046875 74.36 C 38.045192644547726 74.36 34.15935031960227 70.473832064 34.15935031960227 65.68 Z"/></g><g transform="translate(2,-14) scale(1,1)"><path fill="none" stroke="#000000" d="M 34.15935031960227 65.68 C 34.15935031960227 60.88616793600001 38.045192644547726 57 42.838623046875 57 C 47.632053449202274 57 51.51789577414773 60.88616793600001 51.51789577414773 65.68 C 51.51789577414773 70.473832064 47.632053449202274 74.36 42.838623046875 74.36 C 38.045192644547726 74.36 34.15935031960227 70.473832064 34.15935031960227 65.68 Z" stroke-miterlimit="10"/></g><g transform="translate(2,-14) scale(1,1)"><path fill="none" stroke="#000000" d="M 42.838623046875 74.36 L 42.838623046875 91.64" stroke-miterlimit="10"/></g><g transform="translate(2,-14) scale(1,1)"><path fill="none" stroke="#000000" d="M 33.64880486505682 80.84 L 52.02844122869318 80.84" stroke-miterlimit="10"/></g><g transform="translate(2,-14) scale(1,1)"><path fill="none" stroke="#000000" d="M 42.838623046875 91.64 L 30.074986683238635 109" stroke-miterlimit="10"/></g><g transform="translate(2,-14) scale(1,1)"><path fill="none" stroke="#000000" d="M 42.838623046875 91.64 L 55.602259410511365 109" stroke-miterlimit="10"/></g><g transform="translate(2,-14) scale(1,1)"><g><path fill="none" stroke="none"/><text fill="#000000" stroke="none" font-family="Arial" font-size="13px" font-style="normal" font-weight="bold" text-decoration="none" x="14.66455078125" y="129.5">Customer</text></g></g><g transform="translate(2,-14) scale(1,1)"><path fill="#C0C0C0" stroke="none" d="M 103 64 C 103 54.6111584 136.57864 47 178 47 C 219.42136 47 253 54.6111584 253 64 C 253 73.3888416 219.42136 81 178 81 C 136.57864 81 103 73.3888416 103 64 Z" opacity="0.2"/></g><g transform="translate(2,-14) scale(1,1)"><path fill="#ffffff" stroke="none" d="M 96 57 C 96 47.6111584 129.57864 40 171 40 C 212.42136 40 246 47.6111584 246 57 C 246 66.3888416 212.42136 74 171 74 C 129.57864 74 96 66.3888416 96 57 Z"/></g><g transform="translate(2,-14) scale(1,1)"><path fill="none" stroke="#000000" d="M 96 57 C 96 47.6111584 129.57864 40 171 40 C 212.42136 40 246 47.6111584 246 57 C 246 66.3888416 212.42136 74 171 74 C 129.57864 74 96 66.3888416 96 57 Z" stroke-miterlimit="10"/></g><g transform="translate(2,-14) scale(1,1)"><g><path fill="none" stroke="none"/><text fill="#000000" stroke="none" font-family="Arial" font-size="13px" font-style="normal" font-weight="bold" text-decoration="none" x="125.830078125" y="64">select envelope</text></g></g><g transform="translate(2,-14) scale(1,1)"><path fill="#C0C0C0" stroke="none" d="M 143 104 C 143 94.6111584 179.0410736 87 223.5 87 C 267.9589264 87 304 94.6111584 304 104 C 304 113.3888416 267.9589264 121 223.5 121 C 179.0410736 121 143 113.3888416 143 104 Z" opacity="0.2"/></g><g transform="translate(2,-14) scale(1,1)"><path fill="#ffffff" stroke="none" d="M 136 97 C 136 87.6111584 172.0410736 80 216.5 80 C 260.9589264 80 297 87.6111584 297 97 C 297 106.3888416 260.9589264 114 216.5 114 C 172.0410736 114 136 106.3888416 136 97 Z"/></g><g transform="translate(2,-14) scale(1,1)"><path fill="none" stroke="#000000" d="M 136 97 C 136 87.6111584 172.0410736 80 216.5 80 C 260.9589264 80 297 87.6111584 297 97 C 297 106.3888416 260.9589264 114 216.5 114 C 172.0410736 114 136 106.3888416 136 97 Z" stroke-miterlimit="10"/></g><g transform="translate(2,-14) scale(1,1)"><g><path fill="none" stroke="none"/><text fill="#000000" stroke="none" font-family="Arial" font-size="13px" font-style="normal" font-weight="bold" text-decoration="none" x="168.080078125" y="104">select packaging</text></g></g><g transform="translate(2,-14) scale(1,1)"><path fill="#C0C0C0" stroke="none" d="M 167 152 C 167 142.6111584 222.0689696 135 290 135 C 357.9310304 135 413 142.6111584 413 152 C 413 161.3888416 357.9310304 169 290 169 C 222.0689696 169 167 161.3888416 167 152 Z" opacity="0.2"/></g><g transform="translate(2,-14) scale(1,1)"><path fill="#ffffff" stroke="none" d="M 160 145 C 160 135.6111584 215.0689696 128 283 128 C 350.9310304 128 406 135.6111584 406 145 C 406 154.3888416 350.9310304 162 283 162 C 215.0689696 162 160 154.3888416 160 145 Z"/></g><g transform="translate(2,-14) scale(1,1)"><path fill="none" stroke="#000000" d="M 160 145 C 160 135.6111584 215.0689696 128 283 128 C 350.9310304 128 406 135.6111584 406 145 C 406 154.3888416 350.9310304 162 283 162 C 215.0689696 162 160 154.3888416 160 145 Z" stroke-miterlimit="10"/></g><g transform="translate(2,-14) scale(1,1)"><g><path fill="none" stroke="none"/><text fill="#000000" stroke="none" font-family="Arial" font-size="13px" font-style="normal" font-weight="bold" text-decoration="none" x="207.1328125" y="152">write address on post item</text></g></g><g transform="translate(2,-14) scale(1,1)"><path fill="#C0C0C0" stroke="none" d="M 183 208 C 183 198.6111584 221.2796496 191 268.5 191 C 315.72035040000003 191 354 198.6111584 354 208 C 354 217.3888416 315.72035040000003 225 268.5 225 C 221.2796496 225 183 217.3888416 183 208 Z" opacity="0.2"/></g><g transform="translate(2,-14) scale(1,1)"><path fill="#ffffff" stroke="none" d="M 176 201 C 176 191.6111584 214.2796496 184 261.5 184 C 308.72035040000003 184 347 191.6111584 347 201 C 347 210.3888416 308.72035040000003 218 261.5 218 C 214.2796496 218 176 210.3888416 176 201 Z"/></g><g transform="translate(2,-14) scale(1,1)"><path fill="none" stroke="#000000" d="M 176 201 C 176 191.6111584 214.2796496 184 261.5 184 C 308.72035040000003 184 347 191.6111584 347 201 C 347 210.3888416 308.72035040000003 218 261.5 218 C 214.2796496 218 176 210.3888416 176 201 Z" stroke-miterlimit="10"/></g><g transform="translate(2,-14) scale(1,1)"><g><path fill="none" stroke="none"/><text fill="#000000" stroke="none" font-family="Arial" font-size="13px" font-style="normal" font-weight="bold" text-decoration="none" x="209.83642578125" y="208">put stamp on item</text></g></g><g transform="translate(2,-14) scale(1,1)"><path fill="#C0C0C0" stroke="none" d="M 143 272 C 143 262.6111584 173.4446336 255 211 255 C 248.5553664 255 279 262.6111584 279 272 C 279 281.3888416 248.5553664 289 211 289 C 173.4446336 289 143 281.3888416 143 272 Z" opacity="0.2"/></g><g transform="translate(2,-14) scale(1,1)"><path fill="#ffffff" stroke="none" d="M 136 265 C 136 255.6111584 166.4446336 248 204 248 C 241.5553664 248 272 255.6111584 272 265 C 272 274.3888416 241.5553664 282 204 282 C 166.4446336 282 136 274.3888416 136 265 Z"/></g><g transform="translate(2,-14) scale(1,1)"><path fill="none" stroke="#000000" d="M 136 265 C 136 255.6111584 166.4446336 248 204 248 C 241.5553664 248 272 255.6111584 272 265 C 272 274.3888416 241.5553664 282 204 282 C 166.4446336 282 136 274.3888416 136 265 Z" stroke-miterlimit="10"/></g><g transform="translate(2,-14) scale(1,1)"><g><path fill="none" stroke="none"/><text fill="#000000" stroke="none" font-family="Arial" font-size="13px" font-style="normal" font-weight="bold" text-decoration="none" x="163.898681640625" y="272">checkout item</text></g></g><g transform="translate(2,-14) scale(1,1)"><path fill="#C0C0C0" stroke="none" d="M 303 298.5 C 303 287.7304464 325.6096176 279 353.5 279 C 381.3903824 279 404 287.7304464 404 298.5 C 404 309.2695536 381.3903824 318 353.5 318 C 325.6096176 318 303 309.2695536 303 298.5 Z" opacity="0.2"/></g><g transform="translate(2,-14) scale(1,1)"><path fill="#ffffff" stroke="none" d="M 296 291.5 C 296 280.7304464 318.6096176 272 346.5 272 C 374.3903824 272 397 280.7304464 397 291.5 C 397 302.2695536 374.3903824 311 346.5 311 C 318.6096176 311 296 302.2695536 296 291.5 Z"/></g><g transform="translate(2,-14) scale(1,1)"><path fill="none" stroke="#000000" d="M 296 291.5 C 296 280.7304464 318.6096176 272 346.5 272 C 374.3903824 272 397 280.7304464 397 291.5 C 397 302.2695536 374.3903824 311 346.5 311 C 318.6096176 311 296 302.2695536 296 291.5 Z" stroke-miterlimit="10"/></g><g transform="translate(2,-14) scale(1,1)"><g><path fill="none" stroke="none"/><text fill="#000000" stroke="none" font-family="Arial" font-size="13px" font-style="normal" font-weight="bold" text-decoration="none" x="326.266845703125" y="298.5">pay bill</text></g></g><g transform="translate(2,-14) scale(1,1)"><path fill="#C0C0C0" stroke="none" d="M 103 458.5 C 103 443.312168 145.08522879999998 431 197 431 C 248.91477120000002 431 291 443.312168 291 458.5 C 291 473.687832 248.91477120000002 486 197 486 C 145.08522879999998 486 103 473.687832 103 458.5 Z" opacity="0.2"/></g><g transform="translate(2,-14) scale(1,1)"><path fill="#ffffff" stroke="none" d="M 96 451.5 C 96 436.312168 138.08522879999998 424 190 424 C 241.91477120000002 424 284 436.312168 284 451.5 C 284 466.687832 241.91477120000002 479 190 479 C 138.08522879999998 479 96 466.687832 96 451.5 Z"/></g><g transform="translate(2,-14) scale(1,1)"><path fill="none" stroke="#000000" d="M 96 451.5 C 96 436.312168 138.08522879999998 424 190 424 C 241.91477120000002 424 284 436.312168 284 451.5 C 284 466.687832 241.91477120000002 479 190 479 C 138.08522879999998 479 96 466.687832 96 451.5 Z" stroke-miterlimit="10"/></g><g transform="translate(2,-14) scale(1,1)"><g><path fill="none" stroke="none"/><text fill="#000000" stroke="none" font-family="Arial" font-size="13px" font-style="normal" font-weight="bold" text-decoration="none" x="133.629638671875" y="458.5">put post in post box</text></g></g><g transform="translate(2,-14) scale(1,1)"><path fill="#C0C0C0" stroke="none" d="M 327 418.5 C 327 407.7304464 375.5770992 399 435.5 399 C 495.4229008 399 544 407.7304464 544 418.5 C 544 429.2695536 495.4229008 438 435.5 438 C 375.5770992 438 327 429.2695536 327 418.5 Z" opacity="0.2"/></g><g transform="translate(2,-14) scale(1,1)"><path fill="#ffffff" stroke="none" d="M 320 411.5 C 320 400.7304464 368.5770992 392 428.5 392 C 488.4229008 392 537 400.7304464 537 411.5 C 537 422.2695536 488.4229008 431 428.5 431 C 368.5770992 431 320 422.2695536 320 411.5 Z"/></g><g transform="translate(2,-14) scale(1,1)"><path fill="none" stroke="#000000" d="M 320 411.5 C 320 400.7304464 368.5770992 392 428.5 392 C 488.4229008 392 537 400.7304464 537 411.5 C 537 422.2695536 488.4229008 431 428.5 431 C 368.5770992 431 320 422.2695536 320 411.5 Z" stroke-miterlimit="10"/></g><g transform="translate(2,-14) scale(1,1)"><g><path fill="none" stroke="none"/><text fill="#000000" stroke="none" font-family="Arial" font-size="13px" font-style="normal" font-weight="bold" text-decoration="none" x="362.37646484375" y="418.5">put post in sorting area</text></g></g><g transform="translate(2,-14) scale(1,1)"><path fill="#C0C0C0" stroke="none" d="M 263 530.5 C 263 519.7304464 295.0116368 511 334.5 511 C 373.9883632 511 406 519.7304464 406 530.5 C 406 541.2695536 373.9883632 550 334.5 550 C 295.0116368 550 263 541.2695536 263 530.5 Z" opacity="0.2"/></g><g transform="translate(2,-14) scale(1,1)"><path fill="#ffffff" stroke="none" d="M 256 523.5 C 256 512.7304464 288.0116368 504 327.5 504 C 366.9883632 504 399 512.7304464 399 523.5 C 399 534.2695536 366.9883632 543 327.5 543 C 288.0116368 543 256 534.2695536 256 523.5 Z"/></g><g transform="translate(2,-14) scale(1,1)"><path fill="none" stroke="#000000" d="M 256 523.5 C 256 512.7304464 288.0116368 504 327.5 504 C 366.9883632 504 399 512.7304464 399 523.5 C 399 534.2695536 366.9883632 543 327.5 543 C 288.0116368 543 256 534.2695536 256 523.5 Z" stroke-miterlimit="10"/></g><g transform="translate(2,-14) scale(1,1)"><g><path fill="none" stroke="none"/><text fill="#000000" stroke="none" font-family="Arial" font-size="13px" font-style="normal" font-weight="bold" text-decoration="none" x="285.221435546875" y="530.5">put post in van</text></g></g><g transform="translate(2,-14) scale(1,1)"><path fill="#C0C0C0" stroke="none" d="M 271 594.5 C 271 583.7304464 296.9674816 575 329 575 C 361.0325184 575 387 583.7304464 387 594.5 C 387 605.2695536 361.0325184 614 329 614 C 296.9674816 614 271 605.2695536 271 594.5 Z" opacity="0.2"/></g><g transform="translate(2,-14) scale(1,1)"><path fill="#ffffff" stroke="none" d="M 264 587.5 C 264 576.7304464 289.9674816 568 322 568 C 354.0325184 568 380 576.7304464 380 587.5 C 380 598.2695536 354.0325184 607 322 607 C 289.9674816 607 264 598.2695536 264 587.5 Z"/></g><g transform="translate(2,-14) scale(1,1)"><path fill="none" stroke="#000000" d="M 264 587.5 C 264 576.7304464 289.9674816 568 322 568 C 354.0325184 568 380 576.7304464 380 587.5 C 380 598.2695536 354.0325184 607 322 607 C 289.9674816 607 264 598.2695536 264 587.5 Z" stroke-miterlimit="10"/></g><g transform="translate(2,-14) scale(1,1)"><g><path fill="none" stroke="none"/><text fill="#000000" stroke="none" font-family="Arial" font-size="13px" font-style="normal" font-weight="bold" text-decoration="none" x="288.760498046875" y="594.5">deliver post</text></g></g><g transform="translate(2,-14) scale(1,1)"><path fill="#ffffff" stroke="none" d="M 614.6456784446023 97.68 C 614.6456784446023 92.886167936 618.5315207695477 89 623.324951171875 89 C 628.1183815742023 89 632.0042238991477 92.886167936 632.0042238991477 97.68 C 632.0042238991477 102.473832064 628.1183815742023 106.36 623.324951171875 106.36 C 618.5315207695477 106.36 614.6456784446023 102.473832064 614.6456784446023 97.68 Z"/></g><g transform="translate(2,-14) scale(1,1)"><path fill="none" stroke="#000000" d="M 614.6456784446023 97.68 C 614.6456784446023 92.886167936 618.5315207695477 89 623.324951171875 89 C 628.1183815742023 89 632.0042238991477 92.886167936 632.0042238991477 97.68 C 632.0042238991477 102.473832064 628.1183815742023 106.36 623.324951171875 106.36 C 618.5315207695477 106.36 614.6456784446023 102.473832064 614.6456784446023 97.68 Z" stroke-miterlimit="10"/></g><g transform="translate(2,-14) scale(1,1)"><path fill="none" stroke="#000000" d="M 623.324951171875 106.36 L 623.324951171875 123.64" stroke-miterlimit="10"/></g><g transform="translate(2,-14) scale(1,1)"><path fill="none" stroke="#000000" d="M 614.1351329900568 112.84 L 632.5147693536932 112.84" stroke-miterlimit="10"/></g><g transform="translate(2,-14) scale(1,1)"><path fill="none" stroke="#000000" d="M 623.324951171875 123.64 L 610.5613148082386 141" stroke-miterlimit="10"/></g><g transform="translate(2,-14) scale(1,1)"><path fill="none" stroke="#000000" d="M 623.324951171875 123.64 L 636.0885875355114 141" stroke-miterlimit="10"/></g><g transform="translate(2,-14) scale(1,1)"><g><path fill="none" stroke="none"/><text fill="#000000" stroke="none" font-family="Arial" font-size="13px" font-style="normal" font-weight="bold" text-decoration="none" x="594.4208984375" y="161.5">Employee</text></g></g><g transform="translate(2,-14) scale(1,1)"><path fill="#ffffff" stroke="none" d="M 597.6774545454546 423.12 C 597.6774545454546 415.321738624 603.8660182481455 409 611.5 409 C 619.1339817518545 409 625.3225454545454 415.321738624 625.3225454545454 423.12 C 625.3225454545454 430.91826137600003 619.1339817518545 437.24 611.5 437.24 C 603.8660182481455 437.24 597.6774545454546 430.91826137600003 597.6774545454546 423.12 Z"/></g><g transform="translate(2,-14) scale(1,1)"><path fill="none" stroke="#000000" d="M 597.6774545454546 423.12 C 597.6774545454546 415.321738624 603.8660182481455 409 611.5 409 C 619.1339817518545 409 625.3225454545454 415.321738624 625.3225454545454 423.12 C 625.3225454545454 430.91826137600003 619.1339817518545 437.24 611.5 437.24 C 603.8660182481455 437.24 597.6774545454546 430.91826137600003 597.6774545454546 423.12 Z" stroke-miterlimit="10"/></g><g transform="translate(2,-14) scale(1,1)"><path fill="none" stroke="#000000" d="M 611.5 437.24 L 611.5 464.76" stroke-miterlimit="10"/></g><g transform="translate(2,-14) scale(1,1)"><path fill="none" stroke="#000000" d="M 596.8643636363637 447.56 L 626.1356363636363 447.56" stroke-miterlimit="10"/></g><g transform="translate(2,-14) scale(1,1)"><path fill="none" stroke="#000000" d="M 611.5 464.76 L 591.1727272727273 493" stroke-miterlimit="10"/></g><g transform="translate(2,-14) scale(1,1)"><path fill="none" stroke="#000000" d="M 611.5 464.76 L 631.8272727272727 493" stroke-miterlimit="10"/></g><g transform="translate(2,-14) scale(1,1)"><g><path fill="none" stroke="none"/><text fill="#000000" stroke="none" font-family="Arial" font-size="13px" font-style="normal" font-weight="bold" text-decoration="none" x="584.043212890625" y="513.5">Post Man</text></g></g><g transform="translate(2,-14) scale(1,1)"><path fill="none" stroke="#000000" d="M 79 84 L 110 75" stroke-miterlimit="10"/></g><g transform="translate(2,-14) scale(1,1)"><path fill="none" stroke="#000000" d="M 101.41397001259482 81.87605185083555 L 110 75 L 99.06665708091862 73.79086286395088" stroke-miterlimit="10"/></g><g transform="translate(2,-14) scale(1,1)"><path fill="none" stroke="#000000" d="M 79 95 L 135 96" stroke-miterlimit="10"/></g><g transform="translate(2,-14) scale(1,1)"><path fill="none" stroke="#000000" d="M 124.76378710161214 100.02739934683389 L 135 96 L 124.91410305718823 91.60970583457326" stroke-miterlimit="10"/></g><g transform="translate(2,-14) scale(1,1)"><path fill="none" stroke="#000000" d="M 79 103 L 196 127" stroke-miterlimit="10"/></g><g transform="translate(2,-14) scale(1,1)"><path fill="none" stroke="#000000" d="M 185.19873832276764 129.081524965008 L 196 127 L 186.89049420469237 120.83421504062484" stroke-miterlimit="10"/></g><g transform="translate(2,-14) scale(1,1)"><path fill="none" stroke="#000000" d="M 79 113 L 224 183" stroke-miterlimit="10"/></g><g transform="translate(2,-14) scale(1,1)"><path fill="none" stroke="#000000" d="M 213.0179026150977 182.37267470278786 L 224 183 L 216.67807043915312 174.79089849581598" stroke-miterlimit="10"/></g><g transform="translate(2,-14) scale(1,1)"><path fill="none" stroke="#000000" d="M 551 142 L 348 183" stroke-miterlimit="10"/></g><g transform="translate(2,-14) scale(1,1)"><path fill="none" stroke="#000000" d="M 357.1281593612854 176.86186456039147 L 348 183 L 358.794900577305 185.1142661909277" stroke-miterlimit="10"/></g><g transform="translate(2,-14) scale(1,1)"><path fill="none" stroke="#000000" d="M 79 133 L 187 247" stroke-miterlimit="10"/></g><g transform="translate(2,-14) scale(1,1)"><path fill="none" stroke="#000000" d="M 551 151 L 259 247" stroke-miterlimit="10"/></g><g transform="translate(2,-14) scale(1,1)"><g><path fill="none" stroke="none"/><text fill="#000000" stroke="none" font-family="Arial" font-size="13px" font-style="normal" font-weight="normal" text-decoration="none" x="384.5" y="219.5">+include</text></g></g><g transform="translate(2,-14) scale(1,1)"><path fill="none" stroke="#000000" d="M 273 278 L 295 282" stroke-miterlimit="10" stroke-dasharray="3"/></g><g transform="translate(2,-14) scale(1,1)"><path fill="none" stroke="#000000" d="M 284.2482285730592 284.32366331098535 L 295 282 L 285.75427142985023 276.04042759863455" stroke-miterlimit="10"/></g><g transform="translate(2,-14) scale(1,1)"><g><path fill="none" stroke="none"/><text fill="#000000" stroke="none" font-family="Arial" font-size="13px" font-style="normal" font-weight="normal" text-decoration="none" x="262.5" y="271.5">+extend</text></g></g><g transform="translate(2,-14) scale(1,1)"><path fill="none" stroke="#000000" d="M 380 271 L 554 168" stroke-miterlimit="10"/></g><g transform="translate(2,-14) scale(1,1)"><path fill="none" stroke="#000000" d="M 547.3989985920507 176.79924885500188 L 554 168 L 543.1103786070973 169.55439567653693" stroke-miterlimit="10"/></g><g transform="translate(2,-14) scale(1,1)"><path fill="none" stroke="#000000" d="M 597 168 L 512 304 L 444 391" stroke-miterlimit="10"/></g><g transform="translate(2,-14) scale(1,1)"><path fill="none" stroke="#000000" d="M 446.94175152082903 380.4006557754878 L 444 391 L 453.5750006262271 385.585264271661" stroke-miterlimit="10"/></g><g transform="translate(2,-14) scale(1,1)"><path fill="none" stroke="#000000" d="M 54 136 L 112 344 L 170 423" stroke-miterlimit="10"/></g><g transform="translate(2,-14) scale(1,1)"><path fill="none" stroke="#000000" d="M 160.59245869329501 417.2992836798663 L 170 423 L 167.37887891532375 412.3168485801489" stroke-miterlimit="10"/></g><g transform="translate(2,-14) scale(1,1)"><path fill="#C0C0C0" stroke="none" d="M 151 352 C 151 342.6111584 221.7390016 335 309 335 C 396.2609984 335 467 342.6111584 467 352 C 467 361.3888416 396.2609984 369 309 369 C 221.7390016 369 151 361.3888416 151 352 Z" opacity="0.2"/></g><g transform="translate(2,-14) scale(1,1)"><path fill="#ffffff" stroke="none" d="M 144 345 C 144 335.6111584 214.7390016 328 302 328 C 389.2609984 328 460 335.6111584 460 345 C 460 354.3888416 389.2609984 362 302 362 C 214.7390016 362 144 354.3888416 144 345 Z"/></g><g transform="translate(2,-14) scale(1,1)"><path fill="none" stroke="#000000" d="M 144 345 C 144 335.6111584 214.7390016 328 302 328 C 389.2609984 328 460 335.6111584 460 345 C 460 354.3888416 389.2609984 362 302 362 C 214.7390016 362 144 354.3888416 144 345 Z" stroke-miterlimit="10"/></g><g transform="translate(2,-14) scale(1,1)"><g><path fill="none" stroke="none"/><text fill="#000000" stroke="none" font-family="Arial" font-size="13px" font-style="normal" font-weight="bold" text-decoration="none" x="203.366943359375" y="352">gives item to employee for posting</text></g></g><g transform="translate(2,-14) scale(1,1)"><path fill="none" stroke="#000000" d="M 58 136 L 120 296 L 235 327" stroke-miterlimit="10"/></g><g transform="translate(2,-14) scale(1,1)"><path fill="none" stroke="#000000" d="M 224.0919549473172 328.4193495442076 L 235 327 L 226.2832156861764 320.29047906134286" stroke-miterlimit="10"/></g><g transform="translate(2,-14) scale(1,1)"><path fill="none" stroke="#000000" d="M 342 327 L 464 272 L 578 168" stroke-miterlimit="10"/></g><g transform="translate(2,-14) scale(1,1)"><path fill="none" stroke="#000000" d="M 285 435 L 319 429" stroke-miterlimit="10"/></g><g transform="translate(2,-14) scale(1,1)"><path fill="none" stroke="#000000" d="M 575 471 L 400 508" stroke-miterlimit="10"/></g><g transform="translate(2,-14) scale(1,1)"><path fill="none" stroke="#000000" d="M 409.0721084424636 501.77932090458125 L 400 508 L 410.8136337712818 510.01626502736974" stroke-miterlimit="10"/></g><g transform="translate(2,-14) scale(1,1)"><path fill="none" stroke="#000000" d="M 325 544 L 324 567" stroke-miterlimit="10"/></g><g transform="translate(2,-14) scale(1,1)"><path fill="none" stroke="#000000" d="M 320.23589374918504 556.6640673312673 L 324 567 L 328.6469830248906 557.0297668649936" stroke-miterlimit="10"/></g></g></svg>