<svg version="1.1" xmlns="http://www.w3.org/2000/svg" xmlns:xlink="http://www.w3.org/1999/xlink" width="688.97705078125" height="499"><defs/><g><text fill="#eeeeee" stroke="none" font-family="Arial" font-size="24px" font-style="normal" font-weight="normal" text-decoration="none" x="0" y="0">UNREGISTERED</text><text fill="#eeeeee" stroke="none" font-family="Arial" font-size="24px" font-style="normal" font-weight="normal" text-decoration="none" x="0" y="30">UNREGISTERED</text><text fill="#eeeeee" stroke="none" font-family="Arial" font-size="24px" font-style="normal" font-weight="normal" text-decoration="none" x="0" y="60">UNREGISTERED</text><text fill="#eeeeee" stroke="none" font-family="Arial" font-size="24px" font-style="normal" font-weight="normal" text-decoration="none" x="0" y="90">UNREGISTERED</text><text fill="#eeeeee" stroke="none" font-family="Arial" font-size="24px" font-style="normal" font-weight="normal" text-decoration="none" x="0" y="120">UNREGISTERED</text><text fill="#eeeeee" stroke="none" font-family="Arial" font-size="24px" font-style="normal" font-weight="normal" text-decoration="none" x="0" y="150">UNREGISTERED</text><text fill="#eeeeee" stroke="none" font-family="Arial" font-size="24px" font-style="normal" font-weight="normal" text-decoration="none" x="0" y="180">UNREGISTERED</text><text fill="#eeeeee" stroke="none" font-family="Arial" font-size="24px" font-style="normal" font-weight="normal" text-decoration="none" x="0" y="210">UNREGISTERED</text><text fill="#eeeeee" stroke="none" font-family="Arial" font-size="24px" font-style="normal" font-weight="normal" text-decoration="none" x="0" y="240">UNREGISTERED</text><text fill="#eeeeee" stroke="none" font-family="Arial" font-size="24px" font-style="normal" font-weight="normal" text-decoration="none" x="0" y="270">UNREGISTERED</text><text fill="#eeeeee" stroke="none" font-family="Arial" font-size="24px" font-style="normal" font-weight="normal" text-decoration="none" x="0" y="300">UNREGISTERED</text><text fill="#eeeeee" stroke="none" font-family="Arial" font-size="24px" font-style="normal" font-weight="normal" text-decoration="none" x="0" y="330">UNREGISTERED</text><text fill="#eeeeee" stroke="none" font-family="Arial" font-size="24px" font-style="normal" font-weight="normal" text-decoration="none" x="0" y="360">UNREGISTERED</text><text fill="#eeeeee" stroke="none" font-family="Arial" font-size="24px" font-style="normal" font-weight="normal" text-decoration="none" x="0" y="390">UNREGISTERED</text><text fill="#eeeeee" stroke="none" font-family="Arial" font-size="24px" font-style="normal" font-weight="normal" text-decoration="none" x="0" y="420">UNREGISTERED</text><text fill="#eeeeee" stroke="none" font-family="Arial" font-size="24px" font-style="normal" font-weight="normal" text-decoration="none" x="0" y="450">UNREGISTERED</text><text fill="#eeeeee" stroke="none" font-family="Arial" font-size="24px" font-style="normal" font-weight="normal" text-decoration="none" x="0" y="480">UNREGISTERED</text><text fill="#eeeeee" stroke="none" font-family="Arial" font-size="24px" font-style="normal" font-weight="normal" text-decoration="none" x="200" y="0">UNREGISTERED</text><text fill="#eeeeee" stroke="none" font-family="Arial" font-size="24px" font-style="normal" font-weight="normal" text-decoration="none" x="200" y="30">UNREGISTERED</text><text fill="#eeeeee" stroke="none" font-family="Arial" font-size="24px" font-style="normal" font-weight="normal" text-decoration="none" x="200" y="60">UNREGISTERED</text><text fill="#eeeeee" stroke="none" font-family="Arial" font-size="24px" font-style="normal" font-weight="normal" text-decoration="none" x="200" y="90">UNREGISTERED</text><text fill="#eeeeee" stroke="none" font-family="Arial" font-size="24px" font-style="normal" font-weight="normal" text-decoration="none" x="200" y="120">UNREGISTERED</text><text fill="#eeeeee" stroke="none" font-family="Arial" font-size="24px" font-style="normal" font-weight="normal" text-decoration="none" x="200" y="150">UNREGISTERED</text><text fill="#eeeeee" stroke="none" font-family="Arial" font-size="24px" font-style="normal" font-weight="normal" text-decoration="none" x="200" y="180">UNREGISTERED</text><text fill="#eeeeee" stroke="none" font-family="Arial" font-size="24px" font-style="normal" font-weight="normal" text-decoration="none" x="200" y="210">UNREGISTERED</text><text fill="#eeeeee" stroke="none" font-family="Arial" font-size="24px" font-style="normal" font-weight="normal" text-decoration="none" x="200" y="240">UNREGISTERED</text><text fill="#eeeeee" stroke="none" font-family="Arial" font-size="24px" font-style="normal" font-weight="normal" text-decoration="none" x="200" y="270">UNREGISTERED</text><text fill="#eeeeee" stroke="none" font-family="Arial" font-size="24px" font-style="normal" font-weight="normal" text-decoration="none" x="200" y="300">UNREGISTERED</text><text fill="#eeeeee" stroke="none" font-family="Arial" font-size="24px" font-style="normal" font-weight="normal" text-decoration="none" x="200" y="330">UNREGISTERED</text><text fill="#eeeeee" stroke="none" font-family="Arial" font-size="24px" font-style="normal" font-weight="normal" text-decoration="none" x="200" y="360">UNREGISTERED</text><text fill="#eeeeee" stroke="none" font-family="Arial" font-size="24px" font-style="normal" font-weight="normal" text-decoration="none" x="200" y="390">UNREGISTERED</text><text fill="#eeeeee" stroke="none" font-family="Arial" font-size="24px" font-style="normal" font-weight="normal" text-decoration="none" x="200" y="420">UNREGISTERED</text><text fill="#eeeeee" stroke="none" font-family="Arial" font-size="24px" font-style="normal" font-weight="normal" text-decoration="none" x="200" y="450">UNREGISTERED</text><text fill="#eeeeee" stroke="none" font-family="Arial" font-size="24px" font-style="normal" font-weight="normal" text-decoration="none" x="200" y="480">UNREGISTERED</text><text fill="#eeeeee" stroke="none" font-family="Arial" font-size="24px" font-style="normal" font-weight="normal" text-decoration="none" x="400" y="0">UNREGISTERED</text><text fill="#eeeeee" stroke="none" font-family="Arial" font-size="24px" font-style="normal" font-weight="normal" text-decoration="none" x="400" y="30">UNREGISTERED</text><text fill="#eeeeee" stroke="none" font-family="Arial" font-size="24px" font-style="normal" font-weight="normal" text-decoration="none" x="400" y="60">UNREGISTERED</text><text fill="#eeeeee" stroke="none" font-family="Arial" font-size="24px" font-style="normal" font-weight="normal" text-decoration="none" x="400" y="90">UNREGISTERED</text><text fill="#eeeeee" stroke="none" font-family="Arial" font-size="24px" font-style="normal" font-weight="normal" text-decoration="none" x="400" y="120">UNREGISTERED</text><text fill="#eeeeee" stroke="none" font-family="Arial" font-size="24px" font-style="normal" font-weight="normal" text-decoration="none" x="400" y="150">UNREGISTERED</text><text fill="#eeeeee" stroke="none" font-family="Arial" font-size="24px" font-style="normal" font-weight="normal" text-decoration="none" x="400" y="180">UNREGISTERED</text><text fill="#eeeeee" stroke="none" font-family="Arial" font-size="24px" font-style="normal" font-weight="normal" text-decoration="none" x="400" y="210">UNREGISTERED</text><text fill="#eeeeee" stroke="none" font-family="Arial" font-size="24px" font-style="normal" font-weight="normal" text-decoration="none" x="400" y="240">UNREGISTERED</text><text fill="#eeeeee" stroke="none" font-family="Arial" font-size="24px" font-style="normal" font-weight="normal" text-decoration="none" x="400" y="270">UNREGISTERED</text><text fill="#eeeeee" stroke="none" font-family="Arial" font-size="24px" font-style="normal" font-weight="normal" text-decoration="none" x="400" y="300">UNREGISTERED</text><text fill="#eeeeee" stroke="none" font-family="Arial" font-size="24px" font-style="normal" font-weight="normal" text-decoration="none" x="400" y="330">UNREGISTERED</text><text fill="#eeeeee" stroke="none" font-family="Arial" font-size="24px" font-style="normal" font-weight="normal" text-decoration="none" x="400" y="360">UNREGISTERED</text><text fill="#eeeeee" stroke="none" font-family="Arial" font-size="24px" font-style="normal" font-weight="normal" text-decoration="none" x="400" y="390">UNREGISTERED</text><text fill="#eeeeee" stroke="none" font-family="Arial" font-size="24px" font-style="normal" font-weight="normal" text-decoration="none" x="400" y="420">UNREGISTERED</text><text fill="#eeeeee" stroke="none" font-family="Arial" font-size="24px" font-style="normal" font-weight="normal" text-decoration="none" x="400" y="450">UNREGISTERED</text><text fill="#eeeeee" stroke="none" font-family="Arial" font-size="24px" font-style="normal" font-weight="normal" text-decoration="none" x="400" y="480">UNREGISTERED</text><text fill="#eeeeee" stroke="none" font-family="Arial" font-size="24px" font-style="normal" font-weight="normal" text-decoration="none" x="600" y="0">UNREGISTERED</text><text fill="#eeeeee" stroke="none" font-family="Arial" font-size="24px" font-style="normal" font-weight="normal" text-decoration="none" x="600" y="30">UNREGISTERED</text><text fill="#eeeeee" stroke="none" font-family="Arial" font-size="24px" font-style="normal" font-weight="normal" text-decoration="none" x="600" y="60">UNREGISTERED</text><text fill="#eeeeee" stroke="none" font-family="Arial" font-size="24px" font-style="normal" font-weight="normal" text-decoration="none" x="600" y="90">UNREGISTERED</text><text fill="#eeeeee" stroke="none" font-family="Arial" font-size="24px" font-style="normal" font-weight="normal" text-decoration="none" x="600" y="120">UNREGISTERED</text><text fill="#eeeeee" stroke="none" font-family="Arial" font-size="24px" font-style="normal" font-weight="normal" text-decoration="none" x="600" y="150">UNREGISTERED</text><text fill="#eeeeee" stroke="none" font-family="Arial" font-size="24px" font-style="normal" font-weight="normal" text-decoration="none" x="600" y="180">UNREGISTERED</text><text fill="#eeeeee" stroke="none" font-family="Arial" font-size="24px" font-style="normal" font-weight="normal" text-decoration="none" x="600" y="210">UNREGISTERED</text><text fill="#eeeeee" stroke="none" font-family="Arial" font-size="24px" font-style="normal" font-weight="normal" text-decoration="none" x="600" y="240">UNREGISTERED</text><text fill="#eeeeee" stroke="none" font-family="Arial" font-size="24px" font-style="normal" font-weight="normal" text-decoration="none" x="600" y="270">UNREGISTERED</text><text fill="#eeeeee" stroke="none" font-family="Arial" font-size="24px" font-style="normal" font-weight="normal" text-decoration="none" x="600" y="300">UNREGISTERED</text><text fill="#eeeeee" stroke="none" font-family="Arial" font-size="24px" font-style="normal" font-weight="normal" text-decoration="none" x="600" y="330">UNREGISTERED</text><text fill="#eeeeee" stroke="none" font-family="Arial" font-size="24px" font-style="normal" font-weight="normal" text-decoration="none" x="600" y="360">UNREGISTERED</text><text fill="#eeeeee" stroke="none" font-family="Arial" font-size="24px" font-style="normal" font-weight="normal" text-decoration="none" x="600" y="390">UNREGISTERED</text><text fill="#eeeeee" stroke="none" font-family="Arial" font-size="24px" font-style="normal" font-weight="normal" text-decoration="none" x="600" y="420">UNREGISTERED</text><text fill="#eeeeee" stroke="none" font-family="Arial" font-size="24px" font-style="normal" font-weight="normal" text-decoration="none" x="600" y="450">UNREGISTERED</text><text fill="#eeeeee" stroke="none" font-family="Arial" font-size="24px" font-style="normal" font-weight="normal" text-decoration="none" x="600" y="480">UNREGISTERED</text><g transform="translate(10,-46) scale(1,1)"><rect fill="#C0C0C0" stroke="none" x="127" y="79" width="368" height="463" opacity="0.2"/></g><g transform="translate(10,-46) scale(1,1)"><rect fill="#ffffff" stroke="none" x="120" y="72" width="368" height="463"/></g><g transform="translate(10,-46) scale(1,1)"><path fill="none" stroke="#000000" d="M 120 72 L 488 72 L 488 535 L 120 535 L 120 72 Z Z" stroke-miterlimit="10"/></g><g transform="translate(10,-46) scale(1,1)"><g><path fill="none" stroke="none"/><text fill="#000000" stroke="none" font-family="Arial" font-size="13px" font-style="normal" font-weight="bold" text-decoration="none" x="207.874267578125" y="91.5">Boohoo Online Shopping website</text></g></g><g transform="translate(10,-46) scale(1,1)"><path fill="#ffffff" stroke="none" d="M 48.92204563210227 89.68 C 48.92204563210227 84.886167936 52.807887957047726 81 57.601318359375 81 C 62.394748761702274 81 66.28059108664773 84.886167936 66.28059108664773 89.68 C 66.28059108664773 94.473832064 62.394748761702274 98.36 57.601318359375 98.36 C 52.807887957047726 98.36 48.92204563210227 94.473832064 48.92204563210227 89.68 Z"/></g><g transform="translate(10,-46) scale(1,1)"><path fill="none" stroke="#000000" d="M 48.92204563210227 89.68 C 48.92204563210227 84.886167936 52.807887957047726 81 57.601318359375 81 C 62.394748761702274 81 66.28059108664773 84.886167936 66.28059108664773 89.68 C 66.28059108664773 94.473832064 62.394748761702274 98.36 57.601318359375 98.36 C 52.807887957047726 98.36 48.92204563210227 94.473832064 48.92204563210227 89.68 Z" stroke-miterlimit="10"/></g><g transform="translate(10,-46) scale(1,1)"><path fill="none" stroke="#000000" d="M 57.601318359375 98.36 L 57.601318359375 115.64" stroke-miterlimit="10"/></g><g transform="translate(10,-46) scale(1,1)"><path fill="none" stroke="#000000" d="M 48.41150017755682 104.84 L 66.79113654119318 104.84" stroke-miterlimit="10"/></g><g transform="translate(10,-46) scale(1,1)"><path fill="none" stroke="#000000" d="M 57.601318359375 115.64 L 44.837681995738635 133" stroke-miterlimit="10"/></g><g transform="translate(10,-46) scale(1,1)"><path fill="none" stroke="#000000" d="M 57.601318359375 115.64 L 70.36495472301137 133" stroke-miterlimit="10"/></g><g transform="translate(10,-46) scale(1,1)"><g><path fill="none" stroke="none"/><text fill="#000000" stroke="none" font-family="Arial" font-size="13px" font-style="normal" font-weight="bold" text-decoration="none" x="8.832275390625" y="153.5">regular customer</text></g></g><g transform="translate(10,-46) scale(1,1)"><path fill="#ffffff" stroke="none" d="M 47.52751438210227 281.68 C 47.52751438210227 276.886167936 51.413356707047726 273 56.206787109375 273 C 61.000217511702274 273 64.88605983664773 276.886167936 64.88605983664773 281.68 C 64.88605983664773 286.473832064 61.000217511702274 290.36 56.206787109375 290.36 C 51.413356707047726 290.36 47.52751438210227 286.473832064 47.52751438210227 281.68 Z"/></g><g transform="translate(10,-46) scale(1,1)"><path fill="none" stroke="#000000" d="M 47.52751438210227 281.68 C 47.52751438210227 276.886167936 51.413356707047726 273 56.206787109375 273 C 61.000217511702274 273 64.88605983664773 276.886167936 64.88605983664773 281.68 C 64.88605983664773 286.473832064 61.000217511702274 290.36 56.206787109375 290.36 C 51.413356707047726 290.36 47.52751438210227 286.473832064 47.52751438210227 281.68 Z" stroke-miterlimit="10"/></g><g transform="translate(10,-46) scale(1,1)"><path fill="none" stroke="#000000" d="M 56.206787109375 290.36 L 56.206787109375 307.64" stroke-miterlimit="10"/></g><g transform="translate(10,-46) scale(1,1)"><path fill="none" stroke="#000000" d="M 47.01696892755682 296.84 L 65.39660529119318 296.84" stroke-miterlimit="10"/></g><g transform="translate(10,-46) scale(1,1)"><path fill="none" stroke="#000000" d="M 56.206787109375 307.64 L 43.443150745738635 325" stroke-miterlimit="10"/></g><g transform="translate(10,-46) scale(1,1)"><path fill="none" stroke="#000000" d="M 56.206787109375 307.64 L 68.97042347301137 325" stroke-miterlimit="10"/></g><g transform="translate(10,-46) scale(1,1)"><g><path fill="none" stroke="none"/><text fill="#000000" stroke="none" font-family="Arial" font-size="13px" font-style="normal" font-weight="bold" text-decoration="none" x="15.746826171875" y="345.5">web customer</text></g></g><g transform="translate(10,-46) scale(1,1)"><path fill="#ffffff" stroke="none" d="M 47.52751438210227 457.68 C 47.52751438210227 452.886167936 51.413356707047726 449 56.206787109375 449 C 61.000217511702274 449 64.88605983664773 452.886167936 64.88605983664773 457.68 C 64.88605983664773 462.473832064 61.000217511702274 466.36 56.206787109375 466.36 C 51.413356707047726 466.36 47.52751438210227 462.473832064 47.52751438210227 457.68 Z"/></g><g transform="translate(10,-46) scale(1,1)"><path fill="none" stroke="#000000" d="M 47.52751438210227 457.68 C 47.52751438210227 452.886167936 51.413356707047726 449 56.206787109375 449 C 61.000217511702274 449 64.88605983664773 452.886167936 64.88605983664773 457.68 C 64.88605983664773 462.473832064 61.000217511702274 466.36 56.206787109375 466.36 C 51.413356707047726 466.36 47.52751438210227 462.473832064 47.52751438210227 457.68 Z" stroke-miterlimit="10"/></g><g transform="translate(10,-46) scale(1,1)"><path fill="none" stroke="#000000" d="M 56.206787109375 466.36 L 56.206787109375 483.64" stroke-miterlimit="10"/></g><g transform="translate(10,-46) scale(1,1)"><path fill="none" stroke="#000000" d="M 47.01696892755682 472.84 L 65.39660529119318 472.84" stroke-miterlimit="10"/></g><g transform="translate(10,-46) scale(1,1)"><path fill="none" stroke="#000000" d="M 56.206787109375 483.64 L 43.443150745738635 501" stroke-miterlimit="10"/></g><g transform="translate(10,-46) scale(1,1)"><path fill="none" stroke="#000000" d="M 56.206787109375 483.64 L 68.97042347301137 501" stroke-miterlimit="10"/></g><g transform="translate(10,-46) scale(1,1)"><g><path fill="none" stroke="none"/><text fill="#000000" stroke="none" font-family="Arial" font-size="13px" font-style="normal" font-weight="bold" text-decoration="none" x="15.746826171875" y="521.5">new customer</text></g></g><g transform="translate(10,-46) scale(1,1)"><path fill="#ffffff" stroke="none" d="M 584.4547604758523 65.68 C 584.4547604758523 60.88616793600001 588.3406028007977 57 593.134033203125 57 C 597.9274636054523 57 601.8133059303977 60.88616793600001 601.8133059303977 65.68 C 601.8133059303977 70.473832064 597.9274636054523 74.36 593.134033203125 74.36 C 588.3406028007977 74.36 584.4547604758523 70.473832064 584.4547604758523 65.68 Z"/></g><g transform="translate(10,-46) scale(1,1)"><path fill="none" stroke="#000000" d="M 584.4547604758523 65.68 C 584.4547604758523 60.88616793600001 588.3406028007977 57 593.134033203125 57 C 597.9274636054523 57 601.8133059303977 60.88616793600001 601.8133059303977 65.68 C 601.8133059303977 70.473832064 597.9274636054523 74.36 593.134033203125 74.36 C 588.3406028007977 74.36 584.4547604758523 70.473832064 584.4547604758523 65.68 Z" stroke-miterlimit="10"/></g><g transform="translate(10,-46) scale(1,1)"><path fill="none" stroke="#000000" d="M 593.134033203125 74.36 L 593.134033203125 91.64" stroke-miterlimit="10"/></g><g transform="translate(10,-46) scale(1,1)"><path fill="none" stroke="#000000" d="M 583.9442150213068 80.84 L 602.3238513849432 80.84" stroke-miterlimit="10"/></g><g transform="translate(10,-46) scale(1,1)"><path fill="none" stroke="#000000" d="M 593.134033203125 91.64 L 580.3703968394886 109" stroke-miterlimit="10"/></g><g transform="translate(10,-46) scale(1,1)"><path fill="none" stroke="#000000" d="M 593.134033203125 91.64 L 605.8976695667614 109" stroke-miterlimit="10"/></g><g transform="translate(10,-46) scale(1,1)"><g><path fill="none" stroke="none"/><text fill="#000000" stroke="none" font-family="Arial" font-size="13px" font-style="normal" font-weight="bold" text-decoration="none" x="530.263671875" y="129.5">authenticating service</text></g></g><g transform="translate(10,-46) scale(1,1)"><path fill="#ffffff" stroke="none" d="M 584.0770749289773 185.68 C 584.0770749289773 180.886167936 587.9629172539227 177 592.75634765625 177 C 597.5497780585773 177 601.4356203835227 180.886167936 601.4356203835227 185.68 C 601.4356203835227 190.47383206400002 597.5497780585773 194.36 592.75634765625 194.36 C 587.9629172539227 194.36 584.0770749289773 190.47383206400002 584.0770749289773 185.68 Z"/></g><g transform="translate(10,-46) scale(1,1)"><path fill="none" stroke="#000000" d="M 584.0770749289773 185.68 C 584.0770749289773 180.886167936 587.9629172539227 177 592.75634765625 177 C 597.5497780585773 177 601.4356203835227 180.886167936 601.4356203835227 185.68 C 601.4356203835227 190.47383206400002 597.5497780585773 194.36 592.75634765625 194.36 C 587.9629172539227 194.36 584.0770749289773 190.47383206400002 584.0770749289773 185.68 Z" stroke-miterlimit="10"/></g><g transform="translate(10,-46) scale(1,1)"><path fill="none" stroke="#000000" d="M 592.75634765625 194.36 L 592.75634765625 211.64" stroke-miterlimit="10"/></g><g transform="translate(10,-46) scale(1,1)"><path fill="none" stroke="#000000" d="M 583.5665294744318 200.84 L 601.9461658380682 200.84" stroke-miterlimit="10"/></g><g transform="translate(10,-46) scale(1,1)"><path fill="none" stroke="#000000" d="M 592.75634765625 211.64 L 579.9927112926136 229" stroke-miterlimit="10"/></g><g transform="translate(10,-46) scale(1,1)"><path fill="none" stroke="#000000" d="M 592.75634765625 211.64 L 605.5199840198864 229" stroke-miterlimit="10"/></g><g transform="translate(10,-46) scale(1,1)"><g><path fill="none" stroke="none"/><text fill="#000000" stroke="none" font-family="Arial" font-size="13px" font-style="normal" font-weight="bold" text-decoration="none" x="531.333251953125" y="249.5">identification provider</text></g></g><g transform="translate(10,-46) scale(1,1)"><path fill="#ffffff" stroke="none" d="M 569.8092526633523 305.68 C 569.8092526633523 300.886167936 573.6950949882977 297 578.488525390625 297 C 583.2819557929523 297 587.1677981178977 300.886167936 587.1677981178977 305.68 C 587.1677981178977 310.473832064 583.2819557929523 314.36 578.488525390625 314.36 C 573.6950949882977 314.36 569.8092526633523 310.473832064 569.8092526633523 305.68 Z"/></g><g transform="translate(10,-46) scale(1,1)"><path fill="none" stroke="#000000" d="M 569.8092526633523 305.68 C 569.8092526633523 300.886167936 573.6950949882977 297 578.488525390625 297 C 583.2819557929523 297 587.1677981178977 300.886167936 587.1677981178977 305.68 C 587.1677981178977 310.473832064 583.2819557929523 314.36 578.488525390625 314.36 C 573.6950949882977 314.36 569.8092526633523 310.473832064 569.8092526633523 305.68 Z" stroke-miterlimit="10"/></g><g transform="translate(10,-46) scale(1,1)"><path fill="none" stroke="#000000" d="M 578.488525390625 314.36 L 578.488525390625 331.64" stroke-miterlimit="10"/></g><g transform="translate(10,-46) scale(1,1)"><path fill="none" stroke="#000000" d="M 569.2987072088068 320.84 L 587.6783435724432 320.84" stroke-miterlimit="10"/></g><g transform="translate(10,-46) scale(1,1)"><path fill="none" stroke="#000000" d="M 578.488525390625 331.64 L 565.7248890269886 349" stroke-miterlimit="10"/></g><g transform="translate(10,-46) scale(1,1)"><path fill="none" stroke="#000000" d="M 578.488525390625 331.64 L 591.2521617542614 349" stroke-miterlimit="10"/></g><g transform="translate(10,-46) scale(1,1)"><g><path fill="none" stroke="none"/><text fill="#000000" stroke="none" font-family="Arial" font-size="13px" font-style="normal" font-weight="bold" text-decoration="none" x="499.0126953125" y="369.5">credit card payment service</text></g></g><g transform="translate(10,-46) scale(1,1)"><path fill="#ffffff" stroke="none" d="M 572.2490909090909 444.4 C 572.2490909090909 438.10395328 577.2862939229091 433 583.5 433 C 589.7137060770909 433 594.7509090909091 438.10395328 594.7509090909091 444.4 C 594.7509090909091 450.69604671999997 589.7137060770909 455.8 583.5 455.8 C 577.2862939229091 455.8 572.2490909090909 450.69604671999997 572.2490909090909 444.4 Z"/></g><g transform="translate(10,-46) scale(1,1)"><path fill="none" stroke="#000000" d="M 572.2490909090909 444.4 C 572.2490909090909 438.10395328 577.2862939229091 433 583.5 433 C 589.7137060770909 433 594.7509090909091 438.10395328 594.7509090909091 444.4 C 594.7509090909091 450.69604671999997 589.7137060770909 455.8 583.5 455.8 C 577.2862939229091 455.8 572.2490909090909 450.69604671999997 572.2490909090909 444.4 Z" stroke-miterlimit="10"/></g><g transform="translate(10,-46) scale(1,1)"><path fill="none" stroke="#000000" d="M 583.5 455.8 L 583.5 478.2" stroke-miterlimit="10"/></g><g transform="translate(10,-46) scale(1,1)"><path fill="none" stroke="#000000" d="M 571.5872727272728 464.2 L 595.4127272727272 464.2" stroke-miterlimit="10"/></g><g transform="translate(10,-46) scale(1,1)"><path fill="none" stroke="#000000" d="M 583.5 478.2 L 566.9545454545455 501" stroke-miterlimit="10"/></g><g transform="translate(10,-46) scale(1,1)"><path fill="none" stroke="#000000" d="M 583.5 478.2 L 600.0454545454545 501" stroke-miterlimit="10"/></g><g transform="translate(10,-46) scale(1,1)"><g><path fill="none" stroke="none"/><text fill="#000000" stroke="none" font-family="Arial" font-size="13px" font-style="normal" font-weight="bold" text-decoration="none" x="564.345947265625" y="521.5">paypal</text></g></g><g transform="translate(10,-46) scale(1,1)"><path fill="#C0C0C0" stroke="none" d="M 239 174.5 C 239 161.5213072 269.220776 151 306.5 151 C 343.779224 151 374 161.5213072 374 174.5 C 374 187.4786928 343.779224 198 306.5 198 C 269.220776 198 239 187.4786928 239 174.5 Z" opacity="0.2"/></g><g transform="translate(10,-46) scale(1,1)"><path fill="#ffffff" stroke="none" d="M 232 167.5 C 232 154.5213072 262.220776 144 299.5 144 C 336.779224 144 367 154.5213072 367 167.5 C 367 180.4786928 336.779224 191 299.5 191 C 262.220776 191 232 180.4786928 232 167.5 Z"/></g><g transform="translate(10,-46) scale(1,1)"><path fill="none" stroke="#000000" d="M 232 167.5 C 232 154.5213072 262.220776 144 299.5 144 C 336.779224 144 367 154.5213072 367 167.5 C 367 180.4786928 336.779224 191 299.5 191 C 262.220776 191 232 180.4786928 232 167.5 Z" stroke-miterlimit="10"/></g><g transform="translate(10,-46) scale(1,1)"><g><path fill="none" stroke="none"/><text fill="#000000" stroke="none" font-family="Arial" font-size="13px" font-style="normal" font-weight="bold" text-decoration="none" x="269.161376953125" y="174.5">view items</text></g></g><g transform="translate(10,-46) scale(1,1)"><path fill="#C0C0C0" stroke="none" d="M 239 263 C 239 249.7451648 271.90706720000003 239 312.5 239 C 353.09293279999997 239 386 249.7451648 386 263 C 386 276.2548352 353.09293279999997 287 312.5 287 C 271.90706720000003 287 239 276.2548352 239 263 Z" opacity="0.2"/></g><g transform="translate(10,-46) scale(1,1)"><path fill="#ffffff" stroke="none" d="M 232 256 C 232 242.7451648 264.90706720000003 232 305.5 232 C 346.09293279999997 232 379 242.7451648 379 256 C 379 269.2548352 346.09293279999997 280 305.5 280 C 264.90706720000003 280 232 269.2548352 232 256 Z"/></g><g transform="translate(10,-46) scale(1,1)"><path fill="none" stroke="#000000" d="M 232 256 C 232 242.7451648 264.90706720000003 232 305.5 232 C 346.09293279999997 232 379 242.7451648 379 256 C 379 269.2548352 346.09293279999997 280 305.5 280 C 264.90706720000003 280 232 269.2548352 232 256 Z" stroke-miterlimit="10"/></g><g transform="translate(10,-46) scale(1,1)"><g><path fill="none" stroke="none"/><text fill="#000000" stroke="none" font-family="Arial" font-size="13px" font-style="normal" font-weight="bold" text-decoration="none" x="261.06005859375" y="263">make purchase</text></g></g><g transform="translate(10,-46) scale(1,1)"><path fill="#C0C0C0" stroke="none" d="M 239 358.5 C 239 341.1030288 267.4299152 327 302.5 327 C 337.5700848 327 366 341.1030288 366 358.5 C 366 375.8969712 337.5700848 390 302.5 390 C 267.4299152 390 239 375.8969712 239 358.5 Z" opacity="0.2"/></g><g transform="translate(10,-46) scale(1,1)"><path fill="#ffffff" stroke="none" d="M 232 351.5 C 232 334.1030288 260.4299152 320 295.5 320 C 330.5700848 320 359 334.1030288 359 351.5 C 359 368.8969712 330.5700848 383 295.5 383 C 260.4299152 383 232 368.8969712 232 351.5 Z"/></g><g transform="translate(10,-46) scale(1,1)"><path fill="none" stroke="#000000" d="M 232 351.5 C 232 334.1030288 260.4299152 320 295.5 320 C 330.5700848 320 359 334.1030288 359 351.5 C 359 368.8969712 330.5700848 383 295.5 383 C 260.4299152 383 232 368.8969712 232 351.5 Z" stroke-miterlimit="10"/></g><g transform="translate(10,-46) scale(1,1)"><g><path fill="none" stroke="none"/><text fill="#000000" stroke="none" font-family="Arial" font-size="13px" font-style="normal" font-weight="bold" text-decoration="none" x="269.484130859375" y="358.5">checkout</text></g></g><g transform="translate(10,-46) scale(1,1)"><path fill="#C0C0C0" stroke="none" d="M 239 458.5 C 239 443.312168 272.3547824 431 313.5 431 C 354.6452176 431 388 443.312168 388 458.5 C 388 473.687832 354.6452176 486 313.5 486 C 272.3547824 486 239 473.687832 239 458.5 Z" opacity="0.2"/></g><g transform="translate(10,-46) scale(1,1)"><path fill="#ffffff" stroke="none" d="M 232 451.5 C 232 436.312168 265.3547824 424 306.5 424 C 347.6452176 424 381 436.312168 381 451.5 C 381 466.687832 347.6452176 479 306.5 479 C 265.3547824 479 232 466.687832 232 451.5 Z"/></g><g transform="translate(10,-46) scale(1,1)"><path fill="none" stroke="#000000" d="M 232 451.5 C 232 436.312168 265.3547824 424 306.5 424 C 347.6452176 424 381 436.312168 381 451.5 C 381 466.687832 347.6452176 479 306.5 479 C 265.3547824 479 232 466.687832 232 451.5 Z" stroke-miterlimit="10"/></g><g transform="translate(10,-46) scale(1,1)"><g><path fill="none" stroke="none"/><text fill="#000000" stroke="none" font-family="Arial" font-size="13px" font-style="normal" font-weight="bold" text-decoration="none" x="267.845947265625" y="458.5">client register</text></g></g><g transform="translate(10,-46) scale(1,1)"><path fill="none" stroke="#000000" d="M 116 152 L 260 231" stroke-miterlimit="10"/></g><g transform="translate(10,-46) scale(1,1)"><path fill="none" stroke="#000000" d="M 249.06537321452097 229.80252888874736 L 260 231 L 253.11479119328544 222.421311307202" stroke-miterlimit="10"/></g><g transform="translate(10,-46) scale(1,1)"><path fill="none" stroke="#000000" d="M 105 480 L 231 462" stroke-miterlimit="10"/></g><g transform="translate(10,-46) scale(1,1)"><path fill="none" stroke="#000000" d="M 221.53478088061271 467.60442923248974 L 231 462 L 220.34414946029108 459.2700092902383" stroke-miterlimit="10"/></g><g transform="translate(10,-46) scale(1,1)"><path fill="none" stroke="#000000" d="M 86 447 L 280 192" stroke-miterlimit="10"/></g><g transform="translate(10,-46) scale(1,1)"><path fill="none" stroke="#000000" d="M 277.196907856039 202.63685453658476 L 280 192 L 270.49652256340045 197.53930651002838" stroke-miterlimit="10"/></g><g transform="translate(10,-46) scale(1,1)"><path fill="none" stroke="#000000" d="M 116 131 L 231 154" stroke-miterlimit="10"/></g><g transform="translate(10,-46) scale(1,1)"><path fill="none" stroke="#000000" d="M 220.20912306817837 156.13470724978384 L 231 154 L 221.8602317743892 147.87916371872967" stroke-miterlimit="10"/></g><g transform="translate(10,-46) scale(1,1)"><path fill="none" stroke="#000000" d="M 99 160 L 262 319" stroke-miterlimit="10"/></g><g transform="translate(10,-46) scale(1,1)"><path fill="none" stroke="#000000" d="M 251.7858210666222 314.9170416709277 L 262 319 L 257.6645723337449 308.8903972901666" stroke-miterlimit="10"/></g><g transform="translate(10,-46) scale(1,1)"><path fill="none" stroke="#000000" d="M 56 447 L 56 352" stroke-miterlimit="10"/></g><g transform="translate(10,-46) scale(1,1)"><path fill="none" stroke="#000000" d="M 60.20951775601599 362.16267485762415 L 56 352 L 51.790482243984016 362.16267485762415" stroke-miterlimit="10"/></g><g transform="translate(10,-46) scale(1,1)"><path fill="none" stroke="#000000" d="M 56 271 L 57 160" stroke-miterlimit="10"/></g><g transform="translate(10,-46) scale(1,1)"><path fill="none" stroke="#000000" d="M 61.11779502531763 170.20018451448155 L 57 160 L 52.699101146394405 170.12434042548225" stroke-miterlimit="10"/></g><g transform="translate(10,-46) scale(1,1)"><path fill="none" stroke="#000000" d="M 519 113 L 368 150" stroke-miterlimit="10"/></g><g transform="translate(10,-46) scale(1,1)"><path fill="none" stroke="#000000" d="M 519 203 L 368 178" stroke-miterlimit="10"/></g><g transform="translate(10,-46) scale(1,1)"><path fill="none" stroke="#000000" d="M 520 136 L 350 231" stroke-miterlimit="10"/></g><g transform="translate(10,-46) scale(1,1)"><path fill="none" stroke="#000000" d="M 560 136 L 329 423" stroke-miterlimit="10"/></g><g transform="translate(10,-46) scale(1,1)"><path fill="none" stroke="#000000" d="M 519 248 L 360 321" stroke-miterlimit="10"/></g><g transform="translate(10,-46) scale(1,1)"><path fill="none" stroke="#000000" d="M 487 340 L 360 347" stroke-miterlimit="10"/></g><g transform="translate(10,-46) scale(1,1)"><path fill="none" stroke="#000000" d="M 360 380 L 551 465" stroke-miterlimit="10"/></g><g transform="translate(10,-46) scale(1,1)"><path fill="#C0C0C0" stroke="none" d="M 199 120 C 199 110.6111584 221.6096176 103 249.5 103 C 277.3903824 103 300 110.6111584 300 120 C 300 129.3888416 277.3903824 137 249.5 137 C 221.6096176 137 199 129.3888416 199 120 Z" opacity="0.2"/></g><g transform="translate(10,-46) scale(1,1)"><path fill="#ffffff" stroke="none" d="M 192 113 C 192 103.6111584 214.6096176 96 242.5 96 C 270.3903824 96 293 103.6111584 293 113 C 293 122.3888416 270.3903824 130 242.5 130 C 214.6096176 130 192 122.3888416 192 113 Z"/></g><g transform="translate(10,-46) scale(1,1)"><path fill="none" stroke="#000000" d="M 192 113 C 192 103.6111584 214.6096176 96 242.5 96 C 270.3903824 96 293 103.6111584 293 113 C 293 122.3888416 270.3903824 130 242.5 130 C 214.6096176 130 192 122.3888416 192 113 Z" stroke-miterlimit="10"/></g><g transform="translate(10,-46) scale(1,1)"><g><path fill="none" stroke="none"/><text fill="#000000" stroke="none" font-family="Arial" font-size="13px" font-style="normal" font-weight="bold" text-decoration="none" x="228.766845703125" y="120">login</text></g></g><g transform="translate(10,-46) scale(1,1)"><path fill="#C0C0C0" stroke="none" d="M 303 120 C 303 110.6111584 340.1603616 103 386 103 C 431.8396384 103 469 110.6111584 469 120 C 469 129.3888416 431.8396384 137 386 137 C 340.1603616 137 303 129.3888416 303 120 Z" opacity="0.2"/></g><g transform="translate(10,-46) scale(1,1)"><path fill="#ffffff" stroke="none" d="M 296 113 C 296 103.6111584 333.1603616 96 379 96 C 424.8396384 96 462 103.6111584 462 113 C 462 122.3888416 424.8396384 130 379 130 C 333.1603616 130 296 122.3888416 296 113 Z"/></g><g transform="translate(10,-46) scale(1,1)"><path fill="none" stroke="#000000" d="M 296 113 C 296 103.6111584 333.1603616 96 379 96 C 424.8396384 96 462 103.6111584 462 113 C 462 122.3888416 424.8396384 130 379 130 C 333.1603616 130 296 122.3888416 296 113 Z" stroke-miterlimit="10"/></g><g transform="translate(10,-46) scale(1,1)"><g><path fill="none" stroke="none"/><text fill="#000000" stroke="none" font-family="Arial" font-size="13px" font-style="normal" font-weight="bold" text-decoration="none" x="328.780517578125" y="120">reenter password</text></g></g><g transform="translate(10,-46) scale(1,1)"><path fill="none" stroke="#000000" d="M 261 131 L 274 143" stroke-miterlimit="10" stroke-dasharray="3"/></g><g transform="translate(10,-46) scale(1,1)"><path fill="none" stroke="#000000" d="M 263.67719937198143 139.20002800086905 L 274 143 L 269.3876636439958 133.01369170618682" stroke-miterlimit="10"/></g><g transform="translate(10,-46) scale(1,1)"><g><path fill="none" stroke="none"/><text fill="#000000" stroke="none" font-family="Arial" font-size="13px" font-style="normal" font-weight="normal" text-decoration="none" x="191.5" y="139.5">«include»</text></g></g><g transform="translate(10,-46) scale(1,1)"><path fill="none" stroke="#000000" d="M 352 131 L 335 143" stroke-miterlimit="10" stroke-dasharray="3"/></g><g transform="translate(10,-46) scale(1,1)"><path fill="none" stroke="#000000" d="M 340.8750206036001 133.70031544044238 L 335 143 L 345.7301369233753 140.5783968934573" stroke-miterlimit="10"/></g><g transform="translate(10,-46) scale(1,1)"><g><path fill="none" stroke="none"/><text fill="#000000" stroke="none" font-family="Arial" font-size="13px" font-style="normal" font-weight="normal" text-decoration="none" x="343.5" y="140.5">«extend»</text></g></g></g></svg>